<svg id="b608adf7-9b65-49a8-be84-c8e4a39010be" data-name="Layer 1" xmlns="http://www.w3.org/2000/svg" viewBox="0 0 32 32"><defs><style>.a7929a35-a353-4f8a-b6a2-aa8e0316dd37,.abffea04-455c-4a7d-aa5e-8f353b9d9977{fill:#2b899b;}.a3603d23-fdea-4ecb-b5e0-c989358ec979{fill:#212328;stroke:#212328;}.a3603d23-fdea-4ecb-b5e0-c989358ec979,.abffea04-455c-4a7d-aa5e-8f353b9d9977{stroke-miterlimit:10;stroke-width:0.5px;}.abffea04-455c-4a7d-aa5e-8f353b9d9977{stroke:#2c899b;}</style></defs><title>shadeTrails-icon</title><rect class="a7929a35-a353-4f8a-b6a2-aa8e0316dd37" width="32" height="32"/><path class="a3603d23-fdea-4ecb-b5e0-c989358ec979" d="M16.68,27.9a6.34,6.34,0,0,1-2.23-.39,4.82,4.82,0,0,1-1.81-1.16l.72-1.3a6.08,6.08,0,0,0,1.63,1,4.25,4.25,0,0,0,1.61.33A2.65,2.65,0,0,0,18,26.1a1,1,0,0,0,.51-.9.76.76,0,0,0-.28-.66,2.58,2.58,0,0,0-.78-.37l-1.21-.35a11.67,11.67,0,0,1-1.66-.63,2.7,2.7,0,0,1-1-.8,2,2,0,0,1-.34-1.22,2.5,2.5,0,0,1,.47-1.52,2.87,2.87,0,0,1,1.29-1,5,5,0,0,1,1.92-.35,5.75,5.75,0,0,1,1.88.31,4.18,4.18,0,0,1,1.52,1l-.84,1.28a4.19,4.19,0,0,0-1.26-.82,3.69,3.69,0,0,0-1.41-.27,3.1,3.1,0,0,0-.81.1,1.39,1.39,0,0,0-.67.35A.94.94,0,0,0,15,21a.82.82,0,0,0,.22.61,1.88,1.88,0,0,0,.65.37c.29.11.64.23,1.06.36a14.74,14.74,0,0,1,1.85.62,3,3,0,0,1,1.19.8,2,2,0,0,1,.42,1.33,2.46,2.46,0,0,1-1,2.08A4.33,4.33,0,0,1,16.68,27.9Z"/><path class="a3603d23-fdea-4ecb-b5e0-c989358ec979" d="M30,16.82H25.82v10.9h-2V16.82H19.58V15.06H30Z"/><path class="a3603d23-fdea-4ecb-b5e0-c989358ec979" d="M16.18,27.4A6.34,6.34,0,0,1,14,27a4.82,4.82,0,0,1-1.81-1.16l.72-1.3a6.08,6.08,0,0,0,1.63,1,4.25,4.25,0,0,0,1.61.33,2.65,2.65,0,0,0,1.35-.3,1,1,0,0,0,.51-.9.76.76,0,0,0-.28-.66,2.58,2.58,0,0,0-.78-.37l-1.21-.35A11.67,11.67,0,0,1,14,22.69a2.7,2.7,0,0,1-1-.8,2,2,0,0,1-.34-1.22,2.5,2.5,0,0,1,.47-1.52,2.87,2.87,0,0,1,1.29-1,5,5,0,0,1,1.92-.35,5.75,5.75,0,0,1,1.88.31,4.18,4.18,0,0,1,1.52,1l-.84,1.28a4.19,4.19,0,0,0-1.26-.82,3.69,3.69,0,0,0-1.41-.27,3.1,3.1,0,0,0-.81.1,1.39,1.39,0,0,0-.67.35.94.94,0,0,0-.27.72.82.82,0,0,0,.22.61,1.88,1.88,0,0,0,.65.37c.29.11.64.23,1.06.36a14.74,14.74,0,0,1,1.85.62,3,3,0,0,1,1.19.8,2,2,0,0,1,.42,1.33,2.46,2.46,0,0,1-1,2.08A4.33,4.33,0,0,1,16.18,27.4Z"/><path class="a3603d23-fdea-4ecb-b5e0-c989358ec979" d="M29.53,16.32H25.32v10.9h-2V16.32H19.08V14.56H29.53Z"/><path class="a3603d23-fdea-4ecb-b5e0-c989358ec979" d="M15.68,26.9a6.34,6.34,0,0,1-2.23-.39,4.82,4.82,0,0,1-1.81-1.16l.72-1.3a6.08,6.08,0,0,0,1.63,1,4.25,4.25,0,0,0,1.61.33A2.65,2.65,0,0,0,17,25.1a1,1,0,0,0,.51-.9.76.76,0,0,0-.28-.66,2.58,2.58,0,0,0-.78-.37l-1.21-.35a11.67,11.67,0,0,1-1.66-.63,2.7,2.7,0,0,1-1-.8,2,2,0,0,1-.34-1.22,2.5,2.5,0,0,1,.47-1.52,2.87,2.87,0,0,1,1.29-1,5,5,0,0,1,1.92-.35,5.75,5.75,0,0,1,1.88.31,4.18,4.18,0,0,1,1.52,1l-.84,1.28a4.19,4.19,0,0,0-1.26-.82,3.69,3.69,0,0,0-1.41-.27,3.1,3.1,0,0,0-.81.1,1.39,1.39,0,0,0-.67.35A.94.94,0,0,0,14,20a.82.82,0,0,0,.22.61,1.88,1.88,0,0,0,.65.37c.29.11.64.23,1.06.36a14.74,14.74,0,0,1,1.85.62,3,3,0,0,1,1.19.8,2,2,0,0,1,.42,1.33,2.46,2.46,0,0,1-1,2.08A4.33,4.33,0,0,1,15.68,26.9Z"/><path class="a3603d23-fdea-4ecb-b5e0-c989358ec979" d="M29,15.82H24.82v10.9h-2V15.82H18.58V14.06H29Z"/><path class="a3603d23-fdea-4ecb-b5e0-c989358ec979" d="M15.18,26.4A6.34,6.34,0,0,1,13,26a4.82,4.82,0,0,1-1.81-1.16l.72-1.3a6.08,6.08,0,0,0,1.63,1,4.25,4.25,0,0,0,1.61.33,2.65,2.65,0,0,0,1.35-.3,1,1,0,0,0,.51-.9.76.76,0,0,0-.28-.66,2.58,2.58,0,0,0-.78-.37l-1.21-.35A11.67,11.67,0,0,1,13,21.69a2.7,2.7,0,0,1-1-.8,2,2,0,0,1-.34-1.22,2.5,2.5,0,0,1,.47-1.52,2.87,2.87,0,0,1,1.29-1,5,5,0,0,1,1.92-.35,5.75,5.75,0,0,1,1.88.31,4.18,4.18,0,0,1,1.52,1l-.84,1.28a4.19,4.19,0,0,0-1.26-.82,3.69,3.69,0,0,0-1.41-.27,3.1,3.1,0,0,0-.81.1,1.39,1.39,0,0,0-.67.35.94.94,0,0,0-.27.72.82.82,0,0,0,.22.61,1.88,1.88,0,0,0,.65.37c.29.11.64.23,1.06.36a14.74,14.74,0,0,1,1.85.62,3,3,0,0,1,1.19.8,2,2,0,0,1,.42,1.33,2.46,2.46,0,0,1-1,2.08A4.33,4.33,0,0,1,15.18,26.4Z"/><path class="a3603d23-fdea-4ecb-b5e0-c989358ec979" d="M28.53,15.32H24.32v10.9h-2V15.32H18.08V13.56H28.53Z"/><path class="a3603d23-fdea-4ecb-b5e0-c989358ec979" d="M14.68,25.9a6.34,6.34,0,0,1-2.23-.39,4.82,4.82,0,0,1-1.81-1.16l.72-1.3a6.08,6.08,0,0,0,1.63,1,4.25,4.25,0,0,0,1.61.33A2.65,2.65,0,0,0,16,24.1a1,1,0,0,0,.51-.9.76.76,0,0,0-.28-.66,2.58,2.58,0,0,0-.78-.37l-1.21-.35a11.67,11.67,0,0,1-1.66-.63,2.7,2.7,0,0,1-1-.8,2,2,0,0,1-.34-1.22,2.5,2.5,0,0,1,.47-1.52,2.87,2.87,0,0,1,1.29-1,5,5,0,0,1,1.92-.35,5.75,5.75,0,0,1,1.88.31,4.18,4.18,0,0,1,1.52,1l-.84,1.28a4.19,4.19,0,0,0-1.26-.82,3.69,3.69,0,0,0-1.41-.27,3.1,3.1,0,0,0-.81.1,1.39,1.39,0,0,0-.67.35A.94.94,0,0,0,13,19a.82.82,0,0,0,.22.61,1.88,1.88,0,0,0,.65.37c.29.11.64.23,1.06.36a14.74,14.74,0,0,1,1.85.62,3,3,0,0,1,1.19.8,2,2,0,0,1,.42,1.33,2.46,2.46,0,0,1-1,2.08A4.33,4.33,0,0,1,14.68,25.9Z"/><path class="a3603d23-fdea-4ecb-b5e0-c989358ec979" d="M28,14.82H23.82v10.9h-2V14.82H17.58V13.06H28Z"/><path class="a3603d23-fdea-4ecb-b5e0-c989358ec979" d="M14.18,25.4A6.34,6.34,0,0,1,12,25a4.82,4.82,0,0,1-1.81-1.16l.72-1.3a6.08,6.08,0,0,0,1.63,1,4.25,4.25,0,0,0,1.61.33,2.65,2.65,0,0,0,1.35-.3,1,1,0,0,0,.51-.9.76.76,0,0,0-.28-.66,2.58,2.58,0,0,0-.78-.37l-1.21-.35A11.67,11.67,0,0,1,12,20.69a2.7,2.7,0,0,1-1-.8,2,2,0,0,1-.34-1.22,2.5,2.5,0,0,1,.47-1.52,2.87,2.87,0,0,1,1.29-1,5,5,0,0,1,1.92-.35,5.75,5.75,0,0,1,1.88.31,4.18,4.18,0,0,1,1.52,1l-.84,1.28a4.19,4.19,0,0,0-1.26-.82,3.69,3.69,0,0,0-1.41-.27,3.1,3.1,0,0,0-.81.1,1.39,1.39,0,0,0-.67.35.94.94,0,0,0-.27.72.82.82,0,0,0,.22.61,1.88,1.88,0,0,0,.65.37c.29.11.64.23,1.06.36a14.74,14.74,0,0,1,1.85.62,3,3,0,0,1,1.19.8,2,2,0,0,1,.42,1.33,2.46,2.46,0,0,1-1,2.08A4.33,4.33,0,0,1,14.18,25.4Z"/><path class="a3603d23-fdea-4ecb-b5e0-c989358ec979" d="M27.53,14.32H23.32v10.9h-2V14.32H17.08V12.56H27.53Z"/><path class="a3603d23-fdea-4ecb-b5e0-c989358ec979" d="M13.68,24.9a6.34,6.34,0,0,1-2.23-.39,4.82,4.82,0,0,1-1.81-1.16l.72-1.3a6.08,6.08,0,0,0,1.63,1,4.25,4.25,0,0,0,1.61.33A2.65,2.65,0,0,0,15,23.1a1,1,0,0,0,.51-.9.76.76,0,0,0-.28-.66,2.58,2.58,0,0,0-.78-.37l-1.21-.35a11.67,11.67,0,0,1-1.66-.63,2.7,2.7,0,0,1-1-.8,2,2,0,0,1-.34-1.22,2.5,2.5,0,0,1,.47-1.52,2.87,2.87,0,0,1,1.29-1,5,5,0,0,1,1.92-.35,5.75,5.75,0,0,1,1.88.31,4.18,4.18,0,0,1,1.52,1l-.84,1.28a4.19,4.19,0,0,0-1.26-.82,3.69,3.69,0,0,0-1.41-.27,3.1,3.1,0,0,0-.81.1,1.39,1.39,0,0,0-.67.35A.94.94,0,0,0,12,18a.82.82,0,0,0,.22.61,1.88,1.88,0,0,0,.65.37c.29.11.64.23,1.06.36a14.74,14.74,0,0,1,1.85.62,3,3,0,0,1,1.19.8,2,2,0,0,1,.42,1.33,2.46,2.46,0,0,1-1,2.08A4.33,4.33,0,0,1,13.68,24.9Z"/><path class="a3603d23-fdea-4ecb-b5e0-c989358ec979" d="M27,13.82H22.82v10.9h-2V13.82H16.58V12.06H27Z"/><path class="a3603d23-fdea-4ecb-b5e0-c989358ec979" d="M13.18,24.4A6.34,6.34,0,0,1,11,24a4.82,4.82,0,0,1-1.81-1.16l.72-1.3a6.08,6.08,0,0,0,1.63,1,4.25,4.25,0,0,0,1.61.33,2.65,2.65,0,0,0,1.35-.3,1,1,0,0,0,.51-.9.76.76,0,0,0-.28-.66,2.58,2.58,0,0,0-.78-.37l-1.21-.35A11.67,11.67,0,0,1,11,19.69a2.7,2.7,0,0,1-1-.8,2,2,0,0,1-.34-1.22,2.5,2.5,0,0,1,.47-1.52,2.87,2.87,0,0,1,1.29-1,5,5,0,0,1,1.92-.35,5.75,5.75,0,0,1,1.88.31,4.18,4.18,0,0,1,1.52,1l-.84,1.28a4.19,4.19,0,0,0-1.26-.82,3.69,3.69,0,0,0-1.41-.27,3.1,3.1,0,0,0-.81.1,1.39,1.39,0,0,0-.67.35.94.94,0,0,0-.27.72.82.82,0,0,0,.22.61,1.88,1.88,0,0,0,.65.37c.29.11.64.23,1.06.36a14.74,14.74,0,0,1,1.85.62,3,3,0,0,1,1.19.8,2,2,0,0,1,.42,1.33,2.46,2.46,0,0,1-1,2.08A4.33,4.33,0,0,1,13.18,24.4Z"/><path class="a3603d23-fdea-4ecb-b5e0-c989358ec979" d="M26.53,13.32H22.32v10.9h-2V13.32H16.08V11.56H26.53Z"/><path class="a3603d23-fdea-4ecb-b5e0-c989358ec979" d="M12.68,23.9a6.34,6.34,0,0,1-2.23-.39,4.82,4.82,0,0,1-1.81-1.16l.72-1.3a6.08,6.08,0,0,0,1.63,1,4.25,4.25,0,0,0,1.61.33A2.65,2.65,0,0,0,14,22.1a1,1,0,0,0,.51-.9.76.76,0,0,0-.28-.66,2.58,2.58,0,0,0-.78-.37l-1.21-.35a11.67,11.67,0,0,1-1.66-.63,2.7,2.7,0,0,1-1-.8,2,2,0,0,1-.34-1.22,2.5,2.5,0,0,1,.47-1.52,2.87,2.87,0,0,1,1.29-1,5,5,0,0,1,1.92-.35,5.75,5.75,0,0,1,1.88.31,4.18,4.18,0,0,1,1.52,1l-.84,1.28a4.19,4.19,0,0,0-1.26-.82,3.69,3.69,0,0,0-1.41-.27,3.1,3.1,0,0,0-.81.1,1.39,1.39,0,0,0-.67.35A.94.94,0,0,0,11,17a.82.82,0,0,0,.22.61,1.88,1.88,0,0,0,.65.37c.29.11.64.23,1.06.36a14.74,14.74,0,0,1,1.85.62,3,3,0,0,1,1.19.8,2,2,0,0,1,.42,1.33,2.46,2.46,0,0,1-1,2.08A4.33,4.33,0,0,1,12.68,23.9Z"/><path class="a3603d23-fdea-4ecb-b5e0-c989358ec979" d="M26,12.82H21.82v10.9h-2V12.82H15.58V11.06H26Z"/><path class="a3603d23-fdea-4ecb-b5e0-c989358ec979" d="M12.18,23.4A6.34,6.34,0,0,1,10,23a4.82,4.82,0,0,1-1.81-1.16l.72-1.3a6.08,6.08,0,0,0,1.63,1,4.25,4.25,0,0,0,1.61.33,2.65,2.65,0,0,0,1.35-.3,1,1,0,0,0,.51-.9.76.76,0,0,0-.28-.66,2.58,2.58,0,0,0-.78-.37l-1.21-.35A11.67,11.67,0,0,1,10,18.69a2.7,2.7,0,0,1-1-.8,2,2,0,0,1-.34-1.22,2.5,2.5,0,0,1,.47-1.52,2.87,2.87,0,0,1,1.29-1,5,5,0,0,1,1.92-.35,5.75,5.75,0,0,1,1.88.31,4.18,4.18,0,0,1,1.52,1l-.84,1.28a4.19,4.19,0,0,0-1.26-.82,3.69,3.69,0,0,0-1.41-.27,3.1,3.1,0,0,0-.81.1,1.39,1.39,0,0,0-.67.35.94.94,0,0,0-.27.72.82.82,0,0,0,.22.61,1.88,1.88,0,0,0,.65.37c.29.11.64.23,1.06.36a14.74,14.74,0,0,1,1.85.62,3,3,0,0,1,1.19.8,2,2,0,0,1,.42,1.33,2.46,2.46,0,0,1-1,2.08A4.33,4.33,0,0,1,12.18,23.4Z"/><path class="a3603d23-fdea-4ecb-b5e0-c989358ec979" d="M25.53,12.32H21.32v10.9h-2V12.32H15.08V10.56H25.53Z"/><path class="a3603d23-fdea-4ecb-b5e0-c989358ec979" d="M11.68,22.9a6.34,6.34,0,0,1-2.23-.39,4.82,4.82,0,0,1-1.81-1.16l.72-1.3a6.08,6.08,0,0,0,1.63,1,4.25,4.25,0,0,0,1.61.33A2.65,2.65,0,0,0,13,21.1a1,1,0,0,0,.51-.9.76.76,0,0,0-.28-.66,2.58,2.58,0,0,0-.78-.37l-1.21-.35a11.67,11.67,0,0,1-1.66-.63,2.7,2.7,0,0,1-1-.8,2,2,0,0,1-.34-1.22,2.5,2.5,0,0,1,.47-1.52,2.87,2.87,0,0,1,1.29-1,5,5,0,0,1,1.92-.35,5.75,5.75,0,0,1,1.88.31,4.18,4.18,0,0,1,1.52,1l-.84,1.28a4.19,4.19,0,0,0-1.26-.82,3.69,3.69,0,0,0-1.41-.27,3.1,3.1,0,0,0-.81.1,1.39,1.39,0,0,0-.67.35A.94.94,0,0,0,10,16a.82.82,0,0,0,.22.61,1.88,1.88,0,0,0,.65.37c.29.11.64.23,1.06.36a14.74,14.74,0,0,1,1.85.62,3,3,0,0,1,1.19.8,2,2,0,0,1,.42,1.33,2.46,2.46,0,0,1-1,2.08A4.33,4.33,0,0,1,11.68,22.9Z"/><path class="a3603d23-fdea-4ecb-b5e0-c989358ec979" d="M25,11.82H20.82v10.9h-2V11.82H14.58V10.06H25Z"/><path class="a3603d23-fdea-4ecb-b5e0-c989358ec979" d="M11.18,22.4A6.34,6.34,0,0,1,9,22a4.82,4.82,0,0,1-1.81-1.16l.72-1.3a6.08,6.08,0,0,0,1.63,1,4.25,4.25,0,0,0,1.61.33,2.65,2.65,0,0,0,1.35-.3,1,1,0,0,0,.51-.9.76.76,0,0,0-.28-.66,2.58,2.58,0,0,0-.78-.37l-1.21-.35A11.67,11.67,0,0,1,9,17.69a2.7,2.7,0,0,1-1-.8,2,2,0,0,1-.34-1.22,2.5,2.5,0,0,1,.47-1.52,2.87,2.87,0,0,1,1.29-1,5,5,0,0,1,1.92-.35,5.75,5.75,0,0,1,1.88.31,4.18,4.18,0,0,1,1.52,1l-.84,1.28a4.19,4.19,0,0,0-1.26-.82,3.69,3.69,0,0,0-1.41-.27,3.1,3.1,0,0,0-.81.1,1.39,1.39,0,0,0-.67.35.94.94,0,0,0-.27.72.82.82,0,0,0,.22.61,1.88,1.88,0,0,0,.65.37c.29.11.64.23,1.06.36a14.74,14.74,0,0,1,1.85.62,3,3,0,0,1,1.19.8,2,2,0,0,1,.42,1.33,2.46,2.46,0,0,1-1,2.08A4.33,4.33,0,0,1,11.18,22.4Z"/><path class="a3603d23-fdea-4ecb-b5e0-c989358ec979" d="M24.53,11.32H20.32v10.9h-2V11.32H14.08V9.56H24.53Z"/><path class="a3603d23-fdea-4ecb-b5e0-c989358ec979" d="M10.68,21.9a6.34,6.34,0,0,1-2.23-.39,4.82,4.82,0,0,1-1.81-1.16l.72-1.3a6.08,6.08,0,0,0,1.63,1,4.25,4.25,0,0,0,1.61.33A2.65,2.65,0,0,0,12,20.1a1,1,0,0,0,.51-.9.76.76,0,0,0-.28-.66,2.58,2.58,0,0,0-.78-.37l-1.21-.35a11.67,11.67,0,0,1-1.66-.63,2.7,2.7,0,0,1-1-.8,2,2,0,0,1-.34-1.22,2.5,2.5,0,0,1,.47-1.52,2.87,2.87,0,0,1,1.29-1,5,5,0,0,1,1.92-.35,5.75,5.75,0,0,1,1.88.31,4.18,4.18,0,0,1,1.52,1l-.84,1.28a4.19,4.19,0,0,0-1.26-.82,3.69,3.69,0,0,0-1.41-.27,3.1,3.1,0,0,0-.81.1,1.39,1.39,0,0,0-.67.35A.94.94,0,0,0,9,15a.82.82,0,0,0,.22.61,1.88,1.88,0,0,0,.65.37c.29.11.64.23,1.06.36a14.74,14.74,0,0,1,1.85.62,3,3,0,0,1,1.19.8,2,2,0,0,1,.42,1.33,2.46,2.46,0,0,1-1,2.08A4.33,4.33,0,0,1,10.68,21.9Z"/><path class="a3603d23-fdea-4ecb-b5e0-c989358ec979" d="M24,10.82H19.82v10.9h-2V10.82H13.58V9.06H24Z"/><path class="a3603d23-fdea-4ecb-b5e0-c989358ec979" d="M10.18,21.4A6.34,6.34,0,0,1,8,21a4.82,4.82,0,0,1-1.81-1.16l.72-1.3a6.08,6.08,0,0,0,1.63,1,4.25,4.25,0,0,0,1.61.33,2.65,2.65,0,0,0,1.35-.3,1,1,0,0,0,.51-.9.76.76,0,0,0-.28-.66,2.58,2.58,0,0,0-.78-.37l-1.21-.35A11.67,11.67,0,0,1,8,16.69a2.7,2.7,0,0,1-1-.8,2,2,0,0,1-.34-1.22,2.5,2.5,0,0,1,.47-1.52,2.87,2.87,0,0,1,1.29-1,5,5,0,0,1,1.92-.35,5.75,5.75,0,0,1,1.88.31,4.18,4.18,0,0,1,1.52,1l-.84,1.28a4.19,4.19,0,0,0-1.26-.82,3.69,3.69,0,0,0-1.41-.27,3.1,3.1,0,0,0-.81.1,1.39,1.39,0,0,0-.67.35.94.94,0,0,0-.27.72.82.82,0,0,0,.22.61,1.88,1.88,0,0,0,.65.37c.29.11.64.23,1.06.36a14.74,14.74,0,0,1,1.85.62,3,3,0,0,1,1.19.8,2,2,0,0,1,.42,1.33,2.46,2.46,0,0,1-1,2.08A4.33,4.33,0,0,1,10.18,21.4Z"/><path class="a3603d23-fdea-4ecb-b5e0-c989358ec979" d="M23.53,10.32H19.32v10.9h-2V10.32H13.08V8.56H23.53Z"/><path class="a3603d23-fdea-4ecb-b5e0-c989358ec979" d="M9.68,20.9a6.34,6.34,0,0,1-2.23-.39,4.82,4.82,0,0,1-1.81-1.16l.72-1.3a6.08,6.08,0,0,0,1.63,1,4.25,4.25,0,0,0,1.61.33A2.65,2.65,0,0,0,11,19.1a1,1,0,0,0,.51-.9.76.76,0,0,0-.28-.66,2.58,2.58,0,0,0-.78-.37l-1.21-.35a11.67,11.67,0,0,1-1.66-.63,2.7,2.7,0,0,1-1-.8,2,2,0,0,1-.34-1.22,2.5,2.5,0,0,1,.47-1.52,2.87,2.87,0,0,1,1.29-1,5,5,0,0,1,1.92-.35,5.75,5.75,0,0,1,1.88.31,4.18,4.18,0,0,1,1.52,1l-.84,1.28a4.19,4.19,0,0,0-1.26-.82,3.69,3.69,0,0,0-1.41-.27,3.1,3.1,0,0,0-.81.1,1.39,1.39,0,0,0-.67.35A.94.94,0,0,0,8,14a.82.82,0,0,0,.22.61,1.88,1.88,0,0,0,.65.37c.29.11.64.23,1.06.36a14.74,14.74,0,0,1,1.85.62,3,3,0,0,1,1.19.8,2,2,0,0,1,.42,1.33,2.46,2.46,0,0,1-1,2.08A4.33,4.33,0,0,1,9.68,20.9Z"/><path class="a3603d23-fdea-4ecb-b5e0-c989358ec979" d="M23,9.82H18.82v10.9h-2V9.82H12.58V8.06H23Z"/><path class="a3603d23-fdea-4ecb-b5e0-c989358ec979" d="M9.18,20.4A6.34,6.34,0,0,1,7,20a4.82,4.82,0,0,1-1.81-1.16l.72-1.3a6.08,6.08,0,0,0,1.63,1,4.25,4.25,0,0,0,1.61.33,2.65,2.65,0,0,0,1.35-.3,1,1,0,0,0,.51-.9.76.76,0,0,0-.28-.66,2.58,2.58,0,0,0-.78-.37l-1.21-.35A11.67,11.67,0,0,1,7,15.69a2.7,2.7,0,0,1-1-.8,2,2,0,0,1-.34-1.22,2.5,2.5,0,0,1,.47-1.52,2.87,2.87,0,0,1,1.29-1,5,5,0,0,1,1.92-.35,5.75,5.75,0,0,1,1.88.31,4.18,4.18,0,0,1,1.52,1l-.84,1.28a4.19,4.19,0,0,0-1.26-.82,3.69,3.69,0,0,0-1.41-.27,3.1,3.1,0,0,0-.81.1,1.39,1.39,0,0,0-.67.35.94.94,0,0,0-.27.72.82.82,0,0,0,.22.61,1.88,1.88,0,0,0,.65.37c.29.11.64.23,1.06.36a14.74,14.74,0,0,1,1.85.62,3,3,0,0,1,1.19.8,2,2,0,0,1,.42,1.33,2.46,2.46,0,0,1-1,2.08A4.33,4.33,0,0,1,9.18,20.4Z"/><path class="a3603d23-fdea-4ecb-b5e0-c989358ec979" d="M22.53,9.32H18.32v10.9h-2V9.32H12.08V7.56H22.53Z"/><path class="a3603d23-fdea-4ecb-b5e0-c989358ec979" d="M8.68,19.9a6.34,6.34,0,0,1-2.23-.39,4.82,4.82,0,0,1-1.81-1.16l.72-1.3a6.08,6.08,0,0,0,1.63,1,4.25,4.25,0,0,0,1.61.33A2.65,2.65,0,0,0,10,18.1a1,1,0,0,0,.51-.9.76.76,0,0,0-.28-.66,2.58,2.58,0,0,0-.78-.37l-1.21-.35a11.67,11.67,0,0,1-1.66-.63,2.7,2.7,0,0,1-1-.8,2,2,0,0,1-.34-1.22,2.5,2.5,0,0,1,.47-1.52,2.87,2.87,0,0,1,1.29-1,5,5,0,0,1,1.92-.35,5.75,5.75,0,0,1,1.88.31,4.18,4.18,0,0,1,1.52,1l-.84,1.28a4.19,4.19,0,0,0-1.26-.82,3.69,3.69,0,0,0-1.41-.27,3.1,3.1,0,0,0-.81.1,1.39,1.39,0,0,0-.67.35A.94.94,0,0,0,7,13a.82.82,0,0,0,.22.61,1.88,1.88,0,0,0,.65.37c.29.11.64.23,1.06.36a14.74,14.74,0,0,1,1.85.62,3,3,0,0,1,1.19.8,2,2,0,0,1,.42,1.33,2.46,2.46,0,0,1-1,2.08A4.33,4.33,0,0,1,8.68,19.9Z"/><path class="a3603d23-fdea-4ecb-b5e0-c989358ec979" d="M22,8.82H17.82v10.9h-2V8.82H11.58V7.06H22Z"/><path class="a3603d23-fdea-4ecb-b5e0-c989358ec979" d="M8.18,19.4A6.34,6.34,0,0,1,6,19a4.82,4.82,0,0,1-1.81-1.16l.72-1.3a6.08,6.08,0,0,0,1.63,1,4.25,4.25,0,0,0,1.61.33,2.65,2.65,0,0,0,1.35-.3,1,1,0,0,0,.51-.9A.76.76,0,0,0,9.68,16a2.58,2.58,0,0,0-.78-.37l-1.21-.35A11.67,11.67,0,0,1,6,14.69a2.7,2.7,0,0,1-1-.8,2,2,0,0,1-.34-1.22,2.5,2.5,0,0,1,.47-1.52,2.87,2.87,0,0,1,1.29-1,5,5,0,0,1,1.92-.35,5.75,5.75,0,0,1,1.88.31,4.18,4.18,0,0,1,1.52,1l-.84,1.28a4.19,4.19,0,0,0-1.26-.82,3.69,3.69,0,0,0-1.41-.27,3.1,3.1,0,0,0-.81.1,1.39,1.39,0,0,0-.67.35.94.94,0,0,0-.27.72.82.82,0,0,0,.22.61,1.88,1.88,0,0,0,.65.37c.29.11.64.23,1.06.36a14.74,14.74,0,0,1,1.85.62,3,3,0,0,1,1.19.8,2,2,0,0,1,.42,1.33,2.46,2.46,0,0,1-1,2.08A4.33,4.33,0,0,1,8.18,19.4Z"/><path class="a3603d23-fdea-4ecb-b5e0-c989358ec979" d="M21.53,8.32H17.32v10.9h-2V8.32H11.08V6.56H21.53Z"/><path class="a3603d23-fdea-4ecb-b5e0-c989358ec979" d="M7.68,18.9a6.34,6.34,0,0,1-2.23-.39,4.82,4.82,0,0,1-1.81-1.16l.72-1.3a6.08,6.08,0,0,0,1.63,1,4.25,4.25,0,0,0,1.61.33A2.65,2.65,0,0,0,9,17.1a1,1,0,0,0,.51-.9.76.76,0,0,0-.28-.66,2.58,2.58,0,0,0-.78-.37l-1.21-.35a11.67,11.67,0,0,1-1.66-.63,2.7,2.7,0,0,1-1-.8,2,2,0,0,1-.34-1.22,2.5,2.5,0,0,1,.47-1.52,2.87,2.87,0,0,1,1.29-1,5,5,0,0,1,1.92-.35,5.75,5.75,0,0,1,1.88.31,4.18,4.18,0,0,1,1.52,1l-.84,1.28a4.19,4.19,0,0,0-1.26-.82,3.69,3.69,0,0,0-1.41-.27,3.1,3.1,0,0,0-.81.1,1.39,1.39,0,0,0-.67.35A.94.94,0,0,0,6,12a.82.82,0,0,0,.22.61,1.88,1.88,0,0,0,.65.37c.29.11.64.23,1.06.36a14.74,14.74,0,0,1,1.85.62,3,3,0,0,1,1.19.8,2,2,0,0,1,.42,1.33,2.46,2.46,0,0,1-1,2.08A4.33,4.33,0,0,1,7.68,18.9Z"/><path class="a3603d23-fdea-4ecb-b5e0-c989358ec979" d="M21,7.82H16.82v10.9h-2V7.82H10.58V6.06H21Z"/><path class="a3603d23-fdea-4ecb-b5e0-c989358ec979" d="M7.18,18.4A6.34,6.34,0,0,1,5,18a4.82,4.82,0,0,1-1.81-1.16l.72-1.3a6.08,6.08,0,0,0,1.63,1,4.25,4.25,0,0,0,1.61.33,2.65,2.65,0,0,0,1.35-.3A1,1,0,0,0,9,15.7.76.76,0,0,0,8.68,15a2.58,2.58,0,0,0-.78-.37l-1.21-.35A11.67,11.67,0,0,1,5,13.69a2.7,2.7,0,0,1-1-.8,2,2,0,0,1-.34-1.22,2.5,2.5,0,0,1,.47-1.52,2.87,2.87,0,0,1,1.29-1,5,5,0,0,1,1.92-.35,5.75,5.75,0,0,1,1.88.31,4.18,4.18,0,0,1,1.52,1L9.9,11.39a4.19,4.19,0,0,0-1.26-.82,3.69,3.69,0,0,0-1.41-.27,3.1,3.1,0,0,0-.81.1,1.39,1.39,0,0,0-.67.35.94.94,0,0,0-.27.72.82.82,0,0,0,.22.61,1.88,1.88,0,0,0,.65.37c.29.11.64.23,1.06.36a14.74,14.74,0,0,1,1.85.62,3,3,0,0,1,1.19.8,2,2,0,0,1,.42,1.33,2.46,2.46,0,0,1-1,2.08A4.33,4.33,0,0,1,7.18,18.4Z"/><path class="a3603d23-fdea-4ecb-b5e0-c989358ec979" d="M20.53,7.32H16.32v10.9h-2V7.32H10.08V5.56H20.53Z"/><path class="a3603d23-fdea-4ecb-b5e0-c989358ec979" d="M6.68,17.9a6.34,6.34,0,0,1-2.23-.39,4.82,4.82,0,0,1-1.81-1.16l.72-1.3a6.08,6.08,0,0,0,1.63,1,4.25,4.25,0,0,0,1.61.33A2.65,2.65,0,0,0,8,16.1a1,1,0,0,0,.51-.9.76.76,0,0,0-.28-.66,2.58,2.58,0,0,0-.78-.37l-1.21-.35a11.67,11.67,0,0,1-1.66-.63,2.7,2.7,0,0,1-1-.8,2,2,0,0,1-.34-1.22,2.5,2.5,0,0,1,.47-1.52,2.87,2.87,0,0,1,1.29-1,5,5,0,0,1,1.92-.35,5.75,5.75,0,0,1,1.88.31,4.18,4.18,0,0,1,1.52,1L9.4,10.89a4.19,4.19,0,0,0-1.26-.82A3.69,3.69,0,0,0,6.73,9.8a3.1,3.1,0,0,0-.81.1,1.39,1.39,0,0,0-.67.35A.94.94,0,0,0,5,11a.82.82,0,0,0,.22.61,1.88,1.88,0,0,0,.65.37c.29.11.64.23,1.06.36a14.74,14.74,0,0,1,1.85.62,3,3,0,0,1,1.19.8,2,2,0,0,1,.42,1.33,2.46,2.46,0,0,1-1,2.08A4.33,4.33,0,0,1,6.68,17.9Z"/><path class="a3603d23-fdea-4ecb-b5e0-c989358ec979" d="M20,6.82H15.82v10.9h-2V6.82H9.58V5.06H20Z"/><path class="abffea04-455c-4a7d-aa5e-8f353b9d9977" d="M6.36,17.58a6.34,6.34,0,0,1-2.23-.39A4.78,4.78,0,0,1,2.33,16L3,14.73a6.24,6.24,0,0,0,1.63,1,4.25,4.25,0,0,0,1.61.33,2.65,2.65,0,0,0,1.35-.3,1,1,0,0,0,.51-.9.77.77,0,0,0-.28-.66,2.58,2.58,0,0,0-.78-.37L5.87,13.5a11.67,11.67,0,0,1-1.66-.63,2.61,2.61,0,0,1-1-.8,2.12,2.12,0,0,1-.34-1.22,2.5,2.5,0,0,1,.47-1.52,3,3,0,0,1,1.29-1A5,5,0,0,1,6.52,8a5.5,5.5,0,0,1,1.88.32,4,4,0,0,1,1.52,1l-.84,1.28a4.19,4.19,0,0,0-1.26-.82,3.69,3.69,0,0,0-1.41-.27,3.74,3.74,0,0,0-.81.1,1.48,1.48,0,0,0-.67.35.94.94,0,0,0-.27.72.86.86,0,0,0,.22.61,2,2,0,0,0,.66.38l1,.35a16.57,16.57,0,0,1,1.85.62,3.15,3.15,0,0,1,1.19.8,2,2,0,0,1,.42,1.33,2.46,2.46,0,0,1-1,2.08A4.33,4.33,0,0,1,6.36,17.58Z"/><path class="abffea04-455c-4a7d-aa5e-8f353b9d9977" d="M19.72,6.51H15.51V17.4h-2V6.51H9.26V4.74H19.72Z"/></svg>