<?xml version="1.0" encoding="utf-8"?>
<!-- Generator: Adobe Illustrator 23.0.0, SVG Export Plug-In . SVG Version: 6.00 Build 0)  -->
<svg version="1.1" id="Layer_1" xmlns="http://www.w3.org/2000/svg" xmlns:xlink="http://www.w3.org/1999/xlink" x="0px" y="0px"
	 viewBox="0 0 486.4 131.7" style="enable-background:new 0 0 486.4 131.7;" xml:space="preserve">
<style type="text/css">
	.st0{fill:#1F2126;}
	.st1{fill:#FFFFFF;stroke:#FFFFFF;stroke-miterlimit:10;}
</style>
<title>shadeTrails-watermark</title>
<g id="b44182a2-9272-4b11-9a5d-c678092cfe1e">
	<path class="st0" d="M472.4,103.3c-0.3-0.4-0.6-0.7-1-1c-0.3-0.4-0.6-0.7-1-1c-0.3-0.4-0.6-0.7-1-1c-0.3-0.4-0.6-0.7-1-1
		c-0.3-0.4-0.6-0.7-1-1c-0.3-0.4-0.6-0.7-1-1c-0.3-0.4-0.6-0.7-1-1c-0.3-0.4-0.6-0.7-1-1c-0.3-0.4-0.6-0.7-1-1c-0.3-0.4-0.6-0.7-1-1
		c-0.3-0.4-0.6-0.7-1-1c-0.3-0.4-0.6-0.7-1-1c-0.3-0.4-0.6-0.7-1-1c-0.3-0.4-0.6-0.7-1-1c-0.2-0.2-0.3-0.4-0.5-0.5
		c0.4-0.2,0.9-0.4,1.3-0.6c1.5-0.5,3-0.7,4.6-0.7c1.8,0,3.7,0.3,5.4,1c1.7,0.9,3.3,2,4.7,3.4l4.8-5.3c-0.2-0.2-0.3-0.3-0.5-0.5
		s-0.3-0.3-0.5-0.5c-0.1-0.1-0.2-0.2-0.3-0.3c-0.1-0.1-0.1-0.1-0.2-0.2s-0.2-0.2-0.3-0.3c-0.1-0.1-0.1-0.1-0.2-0.2s-0.2-0.2-0.3-0.3
		c-0.1-0.1-0.1-0.1-0.2-0.2s-0.2-0.2-0.3-0.3c-0.1-0.1-0.1-0.1-0.2-0.2s-0.2-0.2-0.3-0.3c-0.1-0.1-0.1-0.1-0.2-0.2s-0.2-0.2-0.3-0.3
		c-0.1-0.1-0.1-0.1-0.2-0.2s-0.2-0.2-0.3-0.3c-0.1-0.1-0.1-0.1-0.2-0.2s-0.2-0.2-0.3-0.3c-0.1-0.1-0.1-0.1-0.2-0.2s-0.2-0.2-0.3-0.3
		c-0.1-0.1-0.1-0.1-0.2-0.2s-0.2-0.2-0.3-0.3c-0.1-0.1-0.1-0.1-0.2-0.2s-0.2-0.2-0.3-0.3c-0.1-0.1-0.1-0.1-0.2-0.2s-0.2-0.2-0.3-0.3
		c-0.1-0.1-0.1-0.1-0.2-0.2s-0.2-0.2-0.3-0.3c-0.1-0.1-0.1-0.1-0.2-0.2s-0.2-0.2-0.3-0.3c-0.1-0.1-0.1-0.1-0.2-0.2s-0.2-0.2-0.3-0.3
		c-0.1-0.1-0.1-0.1-0.2-0.2s-0.2-0.2-0.3-0.3c-0.1-0.1-0.1-0.1-0.2-0.2s-0.2-0.2-0.3-0.3c-0.1-0.1-0.1-0.1-0.2-0.2s-0.2-0.2-0.3-0.3
		c-0.1-0.1-0.1-0.1-0.2-0.2s-0.2-0.2-0.3-0.3c-0.1-0.1-0.1-0.1-0.2-0.2s-0.2-0.2-0.3-0.3c-0.1-0.1-0.1-0.1-0.2-0.2s-0.2-0.2-0.3-0.3
		c-0.1-0.1-0.1-0.1-0.2-0.2s-0.2-0.2-0.3-0.3c-0.1-0.1-0.1-0.1-0.2-0.2s-0.2-0.2-0.3-0.3c-0.1-0.1-0.1-0.1-0.2-0.2s-0.2-0.2-0.3-0.3
		c-0.1-0.1-0.1-0.1-0.2-0.2s-0.2-0.2-0.3-0.3c-0.1-0.1-0.1-0.1-0.2-0.2s-0.2-0.2-0.3-0.3c-0.1-0.1-0.1-0.1-0.2-0.2s-0.2-0.2-0.3-0.3
		c-0.1-0.1-0.1-0.1-0.2-0.2s-0.2-0.2-0.3-0.3c-0.1-0.1-0.1-0.1-0.2-0.2s-0.2-0.2-0.3-0.3c-0.1-0.1-0.1-0.1-0.2-0.2s-0.2-0.2-0.3-0.3
		c-0.1-0.1-0.1-0.1-0.2-0.2s-0.2-0.2-0.3-0.3c-0.1-0.1-0.1-0.1-0.2-0.2s-0.2-0.2-0.3-0.3c-0.1-0.1-0.1-0.1-0.2-0.2s-0.2-0.2-0.3-0.3
		c-0.1-0.1-0.1-0.1-0.2-0.2s-0.2-0.2-0.3-0.3c-0.1-0.1-0.1-0.1-0.2-0.2s-0.2-0.2-0.3-0.3c-0.1-0.1-0.1-0.1-0.2-0.2s-0.2-0.2-0.3-0.3
		c-0.1-0.1-0.1-0.1-0.2-0.2s-0.2-0.2-0.3-0.3c-0.1-0.1-0.1-0.1-0.2-0.2s-0.2-0.2-0.3-0.3c-0.1-0.1-0.1-0.1-0.2-0.2s-0.2-0.2-0.3-0.3
		c-0.1-0.1-0.1-0.1-0.2-0.2s-0.2-0.2-0.3-0.3c-0.1-0.1-0.1-0.1-0.2-0.2s-0.2-0.2-0.3-0.3c-0.1-0.1-0.1-0.1-0.2-0.2s-0.2-0.2-0.3-0.3
		c-0.1-0.1-0.1-0.1-0.2-0.2s-0.2-0.2-0.3-0.3c-0.1-0.1-0.1-0.1-0.2-0.2s-0.2-0.2-0.3-0.3c-0.1-0.1-0.1-0.1-0.2-0.2
		c-0.1-0.1-0.2-0.2-0.3-0.3c-0.1-0.1-0.1-0.1-0.2-0.2c-0.1-0.1-0.2-0.2-0.3-0.3c-0.1-0.1-0.1-0.1-0.2-0.2c-0.1-0.1-0.2-0.2-0.3-0.3
		c-0.1-0.1-0.1-0.1-0.2-0.2c-0.1-0.1-0.2-0.2-0.3-0.3c-0.1-0.1-0.1-0.1-0.2-0.2c-0.1-0.1-0.2-0.2-0.3-0.3c-0.1-0.1-0.1-0.1-0.2-0.2
		c-0.1-0.1-0.2-0.2-0.3-0.3c-0.1-0.1-0.1-0.1-0.2-0.2c-0.1-0.1-0.2-0.2-0.3-0.3c-0.1-0.1-0.1-0.1-0.2-0.2c-0.1-0.1-0.2-0.2-0.3-0.3
		c-0.1-0.1-0.1-0.1-0.2-0.2c-0.1-0.1-0.2-0.2-0.3-0.3c-0.1-0.1-0.1-0.1-0.2-0.2c-0.1-0.1-0.2-0.2-0.3-0.3c-0.1-0.1-0.1-0.1-0.2-0.2
		c-0.1-0.1-0.2-0.2-0.3-0.3c-0.1-0.1-0.1-0.1-0.2-0.2c-0.1-0.1-0.2-0.2-0.3-0.3c-0.1-0.1-0.1-0.1-0.2-0.2c-0.1-0.1-0.2-0.2-0.3-0.3
		c-0.1-0.1-0.1-0.1-0.2-0.2c-0.1-0.1-0.2-0.2-0.3-0.3c-0.1-0.1-0.1-0.1-0.2-0.2c-0.1-0.1-0.2-0.2-0.3-0.3c-0.1-0.1-0.1-0.1-0.2-0.2
		c-0.1-0.1-0.2-0.2-0.3-0.3c-0.1-0.1-0.1-0.1-0.2-0.2c-0.1-0.1-0.2-0.2-0.3-0.3c-0.1-0.1-0.1-0.1-0.2-0.2c-0.1-0.1-0.2-0.2-0.3-0.3
		c-0.1-0.1-0.1-0.1-0.2-0.2c-0.1-0.1-0.2-0.2-0.3-0.3c-0.1-0.1-0.1-0.1-0.2-0.2c-0.1-0.1-0.2-0.2-0.3-0.3c-0.1-0.1-0.1-0.1-0.2-0.2
		c-0.1-0.1-0.2-0.2-0.3-0.3c-0.1-0.1-0.1-0.1-0.2-0.2c-0.1-0.1-0.2-0.2-0.3-0.3c-0.1-0.1-0.1-0.1-0.2-0.2c-0.1-0.1-0.2-0.2-0.3-0.3
		c-0.1-0.1-0.1-0.1-0.2-0.2c-0.1-0.1-0.2-0.2-0.3-0.3c-0.1-0.1-0.1-0.1-0.2-0.2c-0.1-0.1-0.2-0.2-0.3-0.3c-0.1-0.1-0.1-0.1-0.2-0.2
		c-0.1-0.1-0.2-0.2-0.3-0.3c-0.1-0.1-0.1-0.1-0.2-0.2c-0.1-0.1-0.2-0.2-0.3-0.3c-0.1-0.1-0.1-0.1-0.2-0.2c-0.1-0.1-0.2-0.2-0.3-0.3
		c-0.1-0.1-0.1-0.1-0.2-0.2c-0.1-0.1-0.2-0.2-0.3-0.3c-0.1-0.1-0.1-0.1-0.2-0.2c-0.1-0.1-0.2-0.2-0.3-0.3c-0.1-0.1-0.1-0.1-0.2-0.2
		c-0.1-0.1-0.2-0.2-0.3-0.3c-0.1-0.1-0.1-0.1-0.2-0.2c-0.1-0.1-0.2-0.2-0.3-0.3c-0.1-0.1-0.1-0.1-0.2-0.2c-0.1-0.1-0.2-0.2-0.3-0.3
		c-0.1-0.1-0.1-0.1-0.2-0.2c-0.1-0.1-0.2-0.2-0.3-0.3c-0.1-0.1-0.1-0.1-0.2-0.2c-0.1-0.1-0.2-0.2-0.3-0.3c-0.1-0.1-0.1-0.1-0.2-0.2
		c-0.1-0.1-0.2-0.2-0.3-0.3c-0.1-0.1-0.1-0.1-0.2-0.2c-0.1-0.1-0.2-0.2-0.3-0.3c-0.1-0.1-0.1-0.1-0.2-0.2c-0.1-0.1-0.2-0.2-0.3-0.3
		c-0.1-0.1-0.1-0.1-0.2-0.2c-0.1-0.1-0.2-0.2-0.3-0.3c-0.1-0.1-0.1-0.1-0.2-0.2c-0.1-0.1-0.2-0.2-0.3-0.3c-0.1-0.1-0.1-0.1-0.2-0.2
		c-0.1-0.1-0.2-0.2-0.3-0.3c-0.1-0.1-0.1-0.1-0.2-0.2c-0.1-0.1-0.2-0.2-0.3-0.3c-0.1-0.1-0.1-0.1-0.2-0.2c-0.1-0.1-0.2-0.2-0.3-0.3
		c-0.1-0.1-0.1-0.1-0.2-0.2c-0.1-0.1-0.2-0.2-0.3-0.3c-0.1-0.1-0.1-0.1-0.2-0.2c-0.1-0.1-0.2-0.2-0.3-0.3c-0.1-0.1-0.1-0.1-0.2-0.2
		c-0.1-0.1-0.2-0.2-0.3-0.3c-0.1-0.1-0.1-0.1-0.2-0.2c-0.1-0.1-0.2-0.2-0.3-0.3c-0.1-0.1-0.1-0.1-0.2-0.2c-0.1-0.1-0.2-0.2-0.3-0.3
		c-0.1-0.1-0.1-0.1-0.2-0.2c-0.1-0.1-0.2-0.2-0.3-0.3c-0.1-0.1-0.1-0.1-0.2-0.2c-0.1-0.1-0.2-0.2-0.3-0.3c-0.1-0.1-0.1-0.1-0.2-0.2
		c-0.1-0.1-0.2-0.2-0.3-0.3c-0.1-0.1-0.1-0.1-0.2-0.2c-0.1-0.1-0.2-0.2-0.3-0.3c-0.1-0.1-0.1-0.1-0.2-0.2c-0.1-0.1-0.2-0.2-0.3-0.3
		c-0.1-0.1-0.1-0.1-0.2-0.2c-0.1-0.1-0.2-0.2-0.3-0.3c-0.1-0.1-0.1-0.1-0.2-0.2c-0.1-0.1-0.2-0.2-0.3-0.3c-0.2-0.2-0.3-0.3-0.5-0.5
		c-1.5-1.5-3.2-2.6-5.2-3.4c-2.6-1-5.4-1.5-8.2-1.4c-2.6-0.1-5.1,0.4-7.5,1.2V32h-0.6l0.1-0.5H406l0.1-0.5h-0.6l0.1-0.5H405l0.1-0.5
		h-0.6l0.1-0.5H404l0.1-0.5h-0.6l0.1-0.5H403l0.1-0.5h-0.6l0.1-0.5H402l0.1-0.5h-0.6l0.1-0.5H401l0.1-0.5h-0.6l0.1-0.5H400l0.1-0.5
		h-0.6l0.1-0.5H399l0.1-0.5h-0.6l0.1-0.5H398l0.1-0.5h-0.6l0.1-0.5H397l0.1-0.5h-0.6l0.1-0.5H396l0.1-0.5h-0.6l0.1-0.5H395l0.1-0.5
		h-0.6l0.1-0.5H394l0.1-0.5h-0.6l0.1-0.5H393l0.1-0.5h-0.6l0.1-0.5H392l0.1-0.5h-0.6l0.1-0.5H391l0.1-0.5h-0.6l0.1-0.5H390l0.1-0.5
		h-0.6l0.1-0.5h-8.8l-1.9,8.9h-0.5l0.1-0.5h-0.6l0.1-0.5h-0.6l0.1-0.5h-0.6l0.1-0.5h-0.6l0.1-0.5h-0.6l0.1-0.5h-0.6l0.1-0.5h-0.6
		l0.1-0.5h-0.6l0.1-0.5h-0.6l0.1-0.5h-0.6l0.1-0.5h-0.6l0.1-0.5h-0.6l0.1-0.5h-0.6l0.1-0.5h-0.6l0.1-0.5h-0.6l0.1-0.5h-0.6l0.1-0.5
		h-8.8l-2.1,9.7h0.6l-0.1,0.5h0.6l-0.1,0.5h0.6l-0.1,0.5h0.6l-0.1,0.5h0.6l-0.1,0.5h0.6l-0.1,0.5h0.6l-0.1,0.5h0.6l-0.1,0.5h0.6
		l-0.1,0.5h0.6l-0.1,0.5h0.6l-0.1,0.5h0.6l-0.1,0.5h0.6l-0.1,0.5h0.6l-0.1,0.4h-8.5l-1.9,9.1h-0.6l0.1-0.5h-0.5l0.1-0.5h-0.7
		l0.1-0.5h-0.5l0.1-0.5h-0.7l0.1-0.5h-0.5l0.1-0.5h-0.7l0.1-0.5h-0.5l0.1-0.5h-0.7l0.1-0.5h-0.5l0.1-0.5h-0.7l0.1-0.5h-0.5l0.1-0.5
		h-0.7l0.1-0.5h-0.5l0.1-0.5h-0.7l0.1-0.5h-0.5l0.1-0.5h-0.7l0.1-0.5h-0.5l0.1-0.5h-8.9l-1.4,6.2c-0.3-0.3-0.6-0.6-0.9-0.8
		c-0.3-0.4-0.6-0.7-1-1c-0.3-0.4-0.6-0.7-1-1c-0.5-0.6-1.1-1.1-1.7-1.6c-2.2-1.7-4.9-2.6-7.7-2.5c-3.1,0-6.1,0.7-8.8,2.1
		c-2.4,1.3-4.6,3-6.5,4.9c-0.2,0-0.4,0-0.6-0.1l0.1-0.4c-0.2,0-0.4,0-0.6-0.1l0.1-0.4c-0.2,0-0.4,0-0.6-0.1l0.1-0.4
		c-0.2,0-0.4,0-0.6-0.1l0.1-0.4c-0.2,0-0.4,0-0.6-0.1l0.1-0.4c-0.2,0-0.4,0-0.6-0.1l0.1-0.4c-0.2,0-0.4,0-0.6-0.1l0.1-0.4
		c-0.2,0-0.4,0-0.6-0.1l0.1-0.4c-0.2,0-0.4,0-0.6-0.1l0.1-0.4c-0.2,0-0.4,0-0.6-0.1l0.1-0.4c-0.2,0-0.4,0-0.6-0.1l0.1-0.4
		c-0.2,0-0.4,0-0.6-0.1l0.1-0.4c-0.2,0-0.4,0-0.6-0.1l0.1-0.4c-0.3,0-0.5-0.1-0.8-0.1s-0.8,0-1.3,0c-1.5,0.1-2.9,0.3-4.3,0.9
		l0.1-0.5H296l0.1-0.5h-0.6l0.1-0.5H295l0.1-0.5h-0.6l0.1-0.5H294l0.1-0.5h-0.6l0.1-0.5H293l0.1-0.5h-0.6l0.1-0.5H292l0.1-0.5h-0.6
		l0.1-0.5H291l0.1-0.5h-0.6l0.1-0.5H290l0.1-0.5h-0.6l0.1-0.5H289l0.1-0.5h-0.6l0.1-0.5H288l0.1-0.5h-0.6l0.1-0.5H287l0.1-0.5h-0.6
		l0.1-0.5H286l0.1-0.5h-0.6l0.1-0.5H285l0.1-0.5h-0.6l0.1-0.5H284l0.1-0.5h-0.6l0.1-0.5H283l0.1-0.5h-0.6l0.1-0.5H282l0.1-0.5h-0.6
		l0.1-0.5H281l0.1-0.5h-44.6l-1.7,7.9h0.6l-0.1,0.5h0.6l-0.1,0.5h0.6l-0.1,0.5h0.6l-0.1,0.5h0.6l-0.1,0.5h0.6l-0.1,0.5h0.6l-0.1,0.5
		h0.6l-0.1,0.5h0.6l-0.1,0.5h0.6l-0.1,0.5h0.6l-0.1,0.5h0.6l-0.1,0.5h0.6l-0.1,0.5h0.6l-0.1,0.5h0.6l-0.1,0.5h0.6l-0.1,0.5h0.6
		l-0.1,0.5h0.6l-0.1,0.5h0.6l-0.1,0.5h0.6l-0.1,0.5h0.6l-0.1,0.5h0.6l-0.1,0.5h0.6l-0.1,0.5h0.6l-0.1,0.5h0.6l-0.1,0.5h0.6l-0.1,0.5
		h0.6l-0.1,0.5h0.6l-0.1,0.5h0.6l-0.1,0.5h0.3l-2.5,12.1c-0.2-0.2-0.5-0.5-0.7-0.7c-0.3-0.4-0.6-0.7-1-1c-0.3-0.4-0.6-0.7-1-1
		c-0.3-0.4-0.6-0.7-1-1c-0.3-0.4-0.6-0.7-1-1c-0.3-0.4-0.6-0.7-1-1c-0.3-0.4-0.6-0.7-1-1c-0.3-0.4-0.6-0.7-1-1c-0.3-0.4-0.6-0.7-1-1
		c-0.3-0.4-0.6-0.7-1-1c-0.3-0.4-0.6-0.7-1-1c-0.3-0.4-0.6-0.7-1-1c-0.3-0.4-0.6-0.7-1-1c-0.3-0.4-0.6-0.7-1-1
		c-0.4-0.5-0.9-0.9-1.4-1.3c-0.2-0.2-0.4-0.4-0.6-0.6c-1.2-1.3-2.7-2.4-4.3-3c-2.4-0.9-5-1.4-7.6-1.3c-3,0-5.9,0.4-8.7,1.4h-0.2
		l0.1-0.5H210l0.1-0.5h-0.6l0.1-0.5H209l0.1-0.5h-0.6l0.1-0.5H208l0.1-0.5h-0.6l0.1-0.5H207l0.1-0.5h-0.6l0.1-0.5H206l0.1-0.5h-0.6
		l0.1-0.5H205l0.1-0.5h-0.6l0.1-0.5H204l0.1-0.5h-0.6l0.1-0.5H203l0.1-0.5h-0.6l0.1-0.5H202l0.1-0.5h-0.6l0.1-0.5H201l0.1-0.5h-0.6
		l0.1-0.5H200l0.1-0.5h-0.6l0.1-0.5H199l0.1-0.5h-0.6l0.1-0.5H198l0.1-0.5h-0.6l0.1-0.5H197l0.1-0.5h-0.6l0.1-0.5H196l0.1-0.5h-0.6
		l0.1-0.5H195l0.1-0.5h-0.6l0.1-0.5H194l0.1-0.5h-0.6l0.1-0.5h-8.9l-5,23.1c-0.2-0.2-0.3-0.3-0.5-0.5s-0.3-0.3-0.5-0.5
		s-0.3-0.3-0.5-0.5s-0.3-0.3-0.5-0.5s-0.3-0.3-0.5-0.5s-0.3-0.3-0.5-0.5c-0.5-0.5-1-1-1.6-1.4c-2.2-1.7-4.9-2.6-7.7-2.5
		c-3,0-6,0.7-8.7,2.1c-2.8,1.5-5.3,3.4-7.4,5.8c-0.5,0.6-1,1.2-1.5,1.8h-0.5l0.1-0.5h-0.6l0.1-0.5h-0.6l0.1-0.5h-0.6l0.1-0.5h-0.6
		l0.1-0.5h-0.6l0.1-0.5h-0.6l0.1-0.5h-0.6l0.1-0.5h-0.6l0.1-0.5h-0.6l0.1-0.5h-0.6l0.1-0.5h-0.6l0.1-0.5h-0.6l0.1-0.5h-0.6l0.1-0.5
		h-0.6l0.1-0.5h-0.6l0.1-0.5h-0.6l0.1-0.5h-0.6l0.1-0.5h-8.8l-1.4,6.2l0,0c-0.2-0.2-0.3-0.3-0.5-0.5s-0.3-0.3-0.5-0.5
		s-0.3-0.3-0.5-0.5s-0.3-0.3-0.5-0.5s-0.3-0.3-0.5-0.5s-0.3-0.3-0.5-0.5c-0.5-0.5-1-1-1.6-1.4c-2.2-1.7-4.9-2.6-7.7-2.5
		c-3.1,0-6.1,0.7-8.8,2.1c-2.8,1.5-5.3,3.5-7.4,5.8c-1.5,1.6-2.7,3.4-3.7,5.3l0,0c-0.1-0.1-0.2-0.2-0.3-0.3v-0.2H98
		c-0.1-0.1-0.2-0.2-0.3-0.3v-0.2h-0.2c-0.1-0.1-0.2-0.2-0.3-0.3v-0.2H97c-0.1-0.1-0.2-0.2-0.3-0.3v-0.2h-0.2
		c-0.1-0.1-0.2-0.2-0.3-0.3v-0.2H96c-0.1-0.1-0.2-0.2-0.3-0.3v-0.2h-0.2c-0.1-0.1-0.2-0.2-0.3-0.3v-0.2H95c-0.1-0.1-0.2-0.2-0.3-0.3
		v-0.2h-0.2c-0.1-0.1-0.2-0.2-0.3-0.3v-0.2H94c-0.1-0.1-0.2-0.2-0.3-0.3v-0.2h-0.2c-0.1-0.1-0.2-0.2-0.3-0.3v-0.2H93
		c-0.1-0.1-0.2-0.2-0.3-0.3v-0.2h-0.2c-0.1-0.1-0.2-0.2-0.3-0.3v-0.2H92c-0.1-0.1-0.2-0.2-0.3-0.3v-0.2h-0.2
		c-0.1-0.1-0.2-0.2-0.3-0.3v-0.2H91c-0.1-0.1-0.2-0.2-0.3-0.3v-0.2h-0.2c-0.1-0.1-0.2-0.2-0.3-0.3v-0.2H90c-0.1-0.1-0.2-0.2-0.3-0.3
		v-0.2h-0.2c-0.1-0.1-0.2-0.2-0.3-0.3v-0.2H89c-0.1-0.1-0.2-0.2-0.3-0.3v-0.2h-0.2c-0.1-0.1-0.2-0.2-0.3-0.3v-0.2H88
		c-0.1-0.1-0.2-0.2-0.3-0.3v-0.2h-0.2c-0.1-0.1-0.2-0.2-0.3-0.3v-0.2H87c-0.1-0.1-0.2-0.1-0.3-0.2l0.1-0.3h-0.5h-0.1l0.1-0.5h-0.6
		l0.1-0.5h-0.6l0.1-0.5h-0.6l0.1-0.5h-0.6l0.1-0.5h-0.6l0.1-0.5h-0.6l0.1-0.5h-0.6l0.1-0.5h-0.6l0.1-0.5h-0.6l0.1-0.5h-0.6l0.1-0.5
		h-0.6l0.1-0.5h-0.6l0.1-0.5h-0.6l0.1-0.5h-0.6l0.1-0.5h-0.6l0.1-0.5h-0.6l0.1-0.5h-0.6l0.1-0.5h-0.6l0.1-0.5h-0.6l0.1-0.5h-0.6
		l0.1-0.5h-0.6l0.1-0.5h-0.6l0.1-0.5h-0.6l0.1-0.5h-0.6l0.1-0.5h-0.6l0.1-0.5h-0.6l0.1-0.5h-0.6l0.1-0.5h-0.6l0.1-0.5h-0.6l0.1-0.5
		h-0.6l0.1-0.5h-0.6l0.1-0.5h-0.6l0.1-0.5h-0.6l0.1-0.5h-0.6l0.1-0.5h-8.8l-6.2,29.3c-0.1-0.1-0.2-0.2-0.3-0.3
		c-0.2-0.2-0.4-0.5-0.7-0.7c-0.1-0.1-0.2-0.2-0.3-0.3c-0.2-0.2-0.4-0.5-0.7-0.7c-0.1-0.1-0.2-0.2-0.3-0.3c-0.2-0.2-0.4-0.5-0.7-0.7
		c-0.1-0.1-0.2-0.2-0.3-0.3c-0.2-0.2-0.4-0.5-0.7-0.7c-0.1-0.1-0.2-0.2-0.3-0.3c-0.2-0.2-0.4-0.5-0.7-0.7c-0.1-0.1-0.2-0.2-0.3-0.3
		c-0.6-0.7-1.3-1.2-2-1.8l-0.1-0.1l-0.1-0.1c-0.1-0.1-0.1-0.1-0.2-0.2c-0.3-0.3-0.5-0.6-0.8-0.8c-1.4-1.3-3.1-2.4-4.9-3.1
		c-2.6-1-5.4-1.5-8.2-1.4c-3.2-0.1-6.4,0.6-9.3,1.9c-2.6,1.1-4.9,2.9-6.6,5.2c-1.7,2.2-2.5,4.9-2.5,7.6c-0.1,1.6,0.3,3.1,1.2,4.4
		c0.3,0.3,0.6,0.7,0.9,0.9c0.1,0.1,0.2,0.2,0.4,0.4c0.2,0.2,0.4,0.4,0.6,0.6c0.1,0.1,0.2,0.2,0.4,0.4c0.2,0.3,0.5,0.5,0.8,0.7
		c0.3,0.4,0.7,0.7,1,1c0.3,0.4,0.7,0.7,1,1c0.3,0.4,0.7,0.7,1,1c0.2,0.3,0.5,0.5,0.8,0.8l0.1,0.1c0.3,0.4,0.7,0.7,1.1,1.1
		c0.3,0.4,0.7,0.7,1,1c0.3,0.4,0.7,0.7,1,1c0.3,0.4,0.7,0.7,1,1c0.3,0.4,0.7,0.7,1,1c0.3,0.4,0.7,0.7,1,1c0.3,0.4,0.7,0.7,1,1
		c0.3,0.4,0.7,0.7,1,1s0.5,0.6,0.8,0.9c-0.3,0.2-0.7,0.4-1.1,0.5c-1.6,0.5-3.3,0.7-4.9,0.7c-2.3,0-4.6-0.5-6.7-1.4
		c-2.3-1-4.4-2.4-6.2-4.1l-4.6,5.7c0.3,0.4,0.7,0.7,1,1C9,68.7,9.1,68.9,9.3,69c0.2,0.2,0.3,0.3,0.5,0.5s0.3,0.3,0.5,0.5
		s0.3,0.3,0.5,0.5s0.3,0.3,0.5,0.5s0.3,0.3,0.5,0.5s0.3,0.3,0.5,0.5s0.3,0.3,0.5,0.5s0.3,0.3,0.5,0.5s0.3,0.3,0.5,0.5
		s0.3,0.3,0.5,0.5s0.3,0.3,0.5,0.5s0.3,0.3,0.5,0.5s0.3,0.3,0.5,0.5s0.3,0.3,0.5,0.5c0.2,0.2,0.3,0.3,0.5,0.5s0.3,0.3,0.5,0.5
		s0.3,0.3,0.5,0.5s0.3,0.3,0.5,0.5s0.3,0.3,0.5,0.5s0.3,0.3,0.5,0.5s0.3,0.3,0.5,0.5s0.3,0.3,0.5,0.5s0.3,0.3,0.5,0.5
		s0.3,0.3,0.5,0.5s0.3,0.3,0.5,0.5s0.3,0.3,0.5,0.5s0.3,0.3,0.5,0.5s0.3,0.3,0.5,0.5s0.3,0.3,0.5,0.5s0.3,0.3,0.5,0.5
		s0.3,0.3,0.5,0.5s0.3,0.3,0.5,0.5s0.3,0.3,0.5,0.5s0.3,0.3,0.5,0.5s0.3,0.3,0.5,0.5s0.3,0.3,0.5,0.5s0.3,0.3,0.5,0.5
		s0.3,0.3,0.5,0.5s0.3,0.3,0.5,0.5s0.3,0.3,0.5,0.5s0.3,0.3,0.5,0.5s0.3,0.3,0.5,0.5s0.3,0.3,0.5,0.5s0.3,0.3,0.5,0.5
		s0.3,0.3,0.5,0.5s0.3,0.3,0.5,0.5s0.3,0.3,0.5,0.5s0.3,0.3,0.5,0.5s0.3,0.3,0.5,0.5s0.3,0.3,0.5,0.5s0.3,0.3,0.5,0.5
		s0.3,0.3,0.5,0.5s0.3,0.3,0.5,0.5s0.3,0.3,0.5,0.5s0.3,0.3,0.5,0.5s0.3,0.3,0.5,0.5s0.3,0.3,0.5,0.5s0.3,0.3,0.5,0.5
		s0.3,0.3,0.5,0.5s0.3,0.3,0.5,0.5s0.3,0.3,0.5,0.5s0.3,0.3,0.5,0.5s0.3,0.3,0.5,0.5s0.3,0.3,0.5,0.5s0.3,0.3,0.5,0.5
		s0.3,0.3,0.5,0.5s0.3,0.3,0.5,0.5s0.3,0.3,0.5,0.5s0.3,0.3,0.5,0.5s0.3,0.3,0.5,0.5s0.3,0.3,0.5,0.5s0.3,0.3,0.5,0.5
		s0.3,0.3,0.5,0.5s0.3,0.3,0.5,0.5s0.3,0.3,0.5,0.5s0.3,0.3,0.5,0.5s0.3,0.3,0.5,0.5s0.3,0.3,0.5,0.5s0.3,0.3,0.5,0.5
		s0.3,0.3,0.5,0.5s0.3,0.3,0.5,0.5s0.3,0.3,0.5,0.5s0.3,0.3,0.5,0.5s0.3,0.3,0.5,0.5s0.3,0.3,0.5,0.5s0.3,0.3,0.5,0.5
		s0.3,0.3,0.5,0.5s0.3,0.3,0.5,0.5s0.3,0.3,0.5,0.5s0.3,0.3,0.5,0.5s0.3,0.3,0.5,0.5s0.3,0.3,0.5,0.5s0.3,0.3,0.5,0.5
		s0.3,0.3,0.5,0.5s0.3,0.3,0.5,0.5s0.3,0.3,0.5,0.5s0.3,0.3,0.5,0.5s0.3,0.3,0.5,0.5c1.8,1.9,4.1,3.3,6.6,4.2
		c3.1,1.1,6.3,1.6,9.5,1.6c3.4,0.1,6.9-0.6,9.9-1.8c2.6-1.1,4.9-2.8,6.6-5.1c0.2-0.3,0.4-0.6,0.6-0.9h0.2l-0.1,0.4h0.6l-0.1,0.5h0.6
		l-0.1,0.5h0.6l-0.1,0.5h0.6l-0.1,0.5h0.6l-0.1,0.5h0.6l-0.1,0.5h0.6l-0.1,0.5h0.6l-0.1,0.5h0.6l-0.1,0.5h0.6l-0.1,0.5h0.6l-0.1,0.5
		h0.6l-0.1,0.5h0.6l-0.1,0.5h8.8l3.3-15.4h0.2l-0.1,0.5h0.7l-0.1,0.5h0.5l-0.1,0.5h0.7l-0.1,0.5h0.5l-0.1,0.5h0.7l-0.1,0.5h0.5
		l-0.1,0.5h0.7l-0.1,0.5h0.5l-0.1,0.5h0.7l-0.1,0.5h0.5l-0.1,0.5h0.7l-0.1,0.5h0.5l-0.1,0.5h0.7l-0.1,0.5h0.5l-0.1,0.5h0.7l-0.1,0.5
		h0.5l-0.1,0.5h0.7l-0.1,0.5h0.5l-0.1,0.5h0.7l-0.1,0.5h0.5l-0.1,0.5h0.7l-0.1,0.5h0.5l-0.1,0.5h0.7l-0.1,0.5h0.5l-0.1,0.5h0.7
		l-0.1,0.5h0.5l-0.1,0.5h0.7l-0.1,0.5h0.5l-0.1,0.5h0.7l-0.1,0.5h0.5l-0.1,0.5h8.9l3.4-16c0.1,0.2,0.3,0.3,0.5,0.5s0.3,0.3,0.5,0.5
		s0.3,0.3,0.5,0.5s0.3,0.3,0.5,0.5s0.3,0.3,0.5,0.5s0.3,0.3,0.5,0.5s0.3,0.3,0.5,0.5s0.3,0.3,0.5,0.5s0.3,0.3,0.5,0.5
		s0.3,0.3,0.5,0.5s0.3,0.3,0.5,0.5s0.3,0.3,0.5,0.5s0.3,0.3,0.5,0.5s0.3,0.3,0.5,0.5s0.3,0.3,0.5,0.5s0.3,0.3,0.5,0.5
		s0.3,0.3,0.5,0.5s0.3,0.3,0.5,0.5s0.3,0.3,0.5,0.5s0.3,0.3,0.5,0.5s0.3,0.3,0.5,0.5s0.3,0.3,0.5,0.5s0.3,0.3,0.5,0.5
		s0.3,0.3,0.5,0.5s0.3,0.3,0.5,0.5c0.7,0.8,1.5,1.4,2.3,2c2.4,1.6,5.2,2.4,8,2.3c3-0.1,5.9-0.8,8.6-2c1.7-0.9,3.2-2,4.6-3.2
		c0.1,0.1,0.3,0.3,0.4,0.4c0.1,0.2,0.3,0.3,0.5,0.5c0.1,0.2,0.3,0.3,0.5,0.5c0.1,0.2,0.3,0.3,0.5,0.5c0.1,0.2,0.3,0.3,0.5,0.5
		c0.1,0.2,0.3,0.3,0.5,0.5s0.4,0.4,0.6,0.6c1.1,0.7,2.4,1.1,3.8,1c0.5,0,1.1,0,1.6-0.1l2-0.3l1.5-7.5c-0.2,0-0.4-0.1-0.6-0.1
		l0.1-0.4c-0.2,0-0.4-0.1-0.6-0.1l0.1-0.4c-0.2,0-0.4-0.1-0.6-0.1l0.1-0.4c-0.1,0-0.2,0-0.3-0.1l0,0c0-0.2,0-0.4,0-0.6
		s0.1-0.4,0.1-0.6l1.4-6.3c0.1,0.1,0.3,0.3,0.4,0.4c0.2,0.2,0.3,0.3,0.5,0.5s0.3,0.3,0.5,0.5s0.3,0.3,0.5,0.5s0.3,0.3,0.5,0.5
		s0.3,0.3,0.5,0.5s0.3,0.3,0.5,0.5s0.3,0.3,0.5,0.5s0.3,0.3,0.5,0.5s0.3,0.3,0.5,0.5s0.3,0.3,0.5,0.5s0.3,0.3,0.5,0.5
		s0.3,0.3,0.5,0.5s0.3,0.3,0.5,0.5s0.3,0.3,0.5,0.5s0.3,0.3,0.5,0.5s0.3,0.3,0.5,0.5s0.3,0.3,0.5,0.5s0.3,0.3,0.5,0.5
		s0.3,0.3,0.5,0.5s0.3,0.3,0.5,0.5s0.3,0.3,0.5,0.5s0.3,0.3,0.5,0.5s0.3,0.3,0.5,0.5s0.3,0.3,0.5,0.5s0.3,0.3,0.5,0.5
		s0.3,0.3,0.5,0.5c0.7,0.8,1.5,1.4,2.3,2c2.4,1.6,5.2,2.4,8,2.3c3-0.1,5.9-0.8,8.5-2.1c1.6-0.8,3-1.8,4.4-3l0.1,0.1
		c0.1,0.2,0.3,0.3,0.5,0.5c0.1,0.2,0.3,0.3,0.5,0.5c0.1,0.2,0.3,0.3,0.5,0.5c0.1,0.2,0.3,0.3,0.5,0.5c0.1,0.2,0.3,0.3,0.5,0.5
		c0.1,0.2,0.3,0.3,0.5,0.5s0.4,0.4,0.6,0.6c1.2,0.8,2.5,1.2,3.9,1.2c0.5,0,1-0.1,1.6-0.2l2-0.3l1.6-7.5c-0.2,0-0.4-0.1-0.6-0.1
		l0.1-0.4c-0.2,0-0.4-0.1-0.6-0.1l0.1-0.4c-0.2,0-0.4-0.1-0.6-0.1l0.1-0.4c-0.1,0-0.2,0-0.3-0.1c0-0.1,0-0.1,0-0.1
		c0-0.2,0-0.3,0-0.5s0-0.4,0.1-0.7l1.5-7.1c0.2,0.2,0.3,0.3,0.5,0.5s0.3,0.3,0.5,0.5s0.3,0.3,0.5,0.5s0.3,0.3,0.5,0.5
		s0.3,0.3,0.5,0.5s0.3,0.3,0.5,0.5s0.3,0.3,0.5,0.5s0.3,0.3,0.5,0.5s0.3,0.3,0.5,0.5s0.3,0.3,0.5,0.5s0.3,0.3,0.5,0.5
		s0.3,0.3,0.5,0.5s0.3,0.3,0.5,0.5s0.3,0.3,0.5,0.5s0.3,0.3,0.5,0.5s0.3,0.3,0.5,0.5s0.3,0.3,0.5,0.5s0.3,0.3,0.5,0.5
		s0.3,0.3,0.5,0.5s0.3,0.3,0.5,0.5s0.3,0.3,0.5,0.5s0.3,0.3,0.5,0.5s0.3,0.3,0.5,0.5s0.3,0.3,0.5,0.5s0.3,0.3,0.5,0.5
		s0.3,0.3,0.5,0.5s0.3,0.3,0.5,0.5c0.9,0.9,1.9,1.7,3,2.4c2.7,1.6,5.8,2.4,9,2.3c2.7,0,5.4-0.5,7.9-1.4c2.6-0.9,4.9-2.2,7.1-3.8
		c2.1-1.5,3.9-3.4,5.3-5.5l-0.7-0.2c0-0.1,0.1-0.1,0.1-0.2l-0.7-0.2c0.1-0.1,0.2-0.3,0.3-0.4l-0.7-0.2c0-0.1,0.1-0.1,0.1-0.2
		l-0.7-0.2c0.1-0.1,0.2-0.3,0.3-0.4l-0.7-0.2c0-0.1,0.1-0.1,0.1-0.2l-0.7-0.2c0.1-0.1,0.2-0.3,0.3-0.4l-0.7-0.2
		c0-0.1,0.1-0.1,0.1-0.2l-0.7-0.2c0.1-0.1,0.2-0.3,0.3-0.4l-0.7-0.2c0-0.1,0.1-0.1,0.1-0.2l-0.8-0.2c0.1-0.1,0.2-0.2,0.3-0.4
		l-0.7-0.2c0-0.1,0.1-0.1,0.1-0.2l-0.7-0.2c0.1-0.1,0.2-0.3,0.3-0.4l-0.8-0.3l0.1-0.1l-0.6-0.2c0.1-0.1,0.2-0.3,0.3-0.4l-0.8-0.3
		l0.1-0.1l-0.6-0.2c0.1-0.1,0.2-0.3,0.3-0.4l-0.8-0.3l0.1-0.1l-0.6-0.2c0.1-0.1,0.2-0.3,0.3-0.4h-0.1c0.7-0.1,1.3-0.3,1.9-0.5
		l-0.1,0.4h0.5l-0.1,0.5h0.7l-0.1,0.5h0.5l-0.1,0.5h0.7l-0.1,0.5h0.5l-0.1,0.5h0.7l-0.1,0.5h0.5l-0.1,0.5h0.7l-0.1,0.5h0.5l-0.1,0.5
		h0.7l-0.1,0.5h0.5l-0.1,0.5h0.7l-0.1,0.5h0.5l-0.1,0.5h0.7l-0.1,0.5h0.5l-0.1,0.5h0.7l-0.1,0.5h0.5l-0.1,0.5h0.7l-0.1,0.5h0.5
		l-0.1,0.5h0.7l-0.1,0.5h0.5l-0.1,0.5h0.7l-0.1,0.5h0.5l-0.1,0.5h0.7l-0.1,0.5h0.5l-0.1,0.5h0.7l-0.1,0.5h0.5l-0.1,0.5h0.7l-0.1,0.5
		h0.5l-0.1,0.5h0.7l-0.1,0.5h0.5l-0.1,0.5h0.7l-0.1,0.5h0.5l-0.1,0.5h0.7l-0.1,0.5h0.5l-0.1,0.5h0.7l-0.1,0.5h0.5l-0.1,0.5h0.7
		l-0.1,0.5h9l3.4-16.5h0.7l-0.1,0.6h0.5l-0.1,0.4h0.7l-0.1,0.6h0.5l-0.1,0.4h0.7l-0.1,0.6h0.5l-0.1,0.4h0.7l-0.1,0.6h0.5l-0.1,0.4
		h0.7l-0.1,0.6h0.5l-0.1,0.4h0.7l-0.1,0.6h0.5l-0.1,0.4h0.7l-0.1,0.6h0.5l-0.1,0.4h0.7l-0.1,0.6h0.5l-0.1,0.4h0.7l-0.1,0.6h0.5
		l-0.1,0.4h0.7l-0.1,0.6h0.5l-0.1,0.4h0.7l-0.1,0.6h0.5l-0.1,0.4h0.7l-0.1,0.6h0.5l-0.1,0.4h0.7l-0.1,0.6h0.5l-0.1,0.4h0.7l-0.1,0.6
		h0.5l-0.1,0.4h0.7l-0.1,0.6h0.5l-0.1,0.4h0.7l-0.1,0.6h0.5l-0.1,0.4h0.7l-0.1,0.6h8.8l5.2-24.4c0.1,0.1,0.2,0.2,0.3,0.3
		c0.2,0.2,0.3,0.3,0.5,0.5s0.3,0.3,0.5,0.5s0.3,0.3,0.5,0.5s0.3,0.3,0.5,0.5s0.3,0.3,0.5,0.5s0.3,0.3,0.5,0.5s0.3,0.3,0.5,0.5
		s0.3,0.3,0.5,0.5s0.3,0.3,0.5,0.5s0.3,0.3,0.5,0.5s0.3,0.3,0.5,0.5s0.3,0.3,0.5,0.5s0.3,0.3,0.5,0.5s0.3,0.3,0.5,0.5
		s0.3,0.3,0.5,0.5s0.3,0.3,0.5,0.5s0.3,0.3,0.5,0.5s0.3,0.3,0.5,0.5s0.3,0.3,0.5,0.5s0.3,0.3,0.5,0.5s0.3,0.3,0.5,0.5
		s0.3,0.3,0.5,0.5s0.3,0.3,0.5,0.5s0.3,0.3,0.5,0.5s0.3,0.3,0.5,0.5s0.3,0.3,0.5,0.5s0.3,0.3,0.5,0.5s0.3,0.3,0.5,0.5
		s0.3,0.3,0.5,0.5s0.3,0.3,0.5,0.5s0.3,0.3,0.5,0.5s0.3,0.3,0.5,0.5s0.3,0.3,0.5,0.5s0.3,0.3,0.5,0.5s0.3,0.3,0.5,0.5
		s0.3,0.3,0.5,0.5s0.3,0.3,0.5,0.5s0.3,0.3,0.5,0.5s0.3,0.3,0.5,0.5s0.3,0.3,0.5,0.5s0.3,0.3,0.5,0.5c0.7,0.8,1.5,1.4,2.3,2
		c2.4,1.6,5.2,2.4,8,2.3c3-0.1,5.9-0.8,8.8-2.1c1.6-0.8,3.2-1.9,4.6-3.1c0.1,0.1,0.2,0.2,0.3,0.3c0.2,0.2,0.4,0.4,0.6,0.6
		c0.1,0.2,0.3,0.3,0.4,0.4c0.2,0.2,0.4,0.4,0.6,0.6c0.1,0.2,0.3,0.3,0.4,0.4c0.2,0.2,0.4,0.4,0.6,0.6s0.4,0.4,0.6,0.6
		c1.1,0.7,2.4,1.1,3.8,1c0.5,0,1.1,0,1.6-0.1l2-0.3l1.4-7.2h0.2l-0.1,0.5h0.6l-0.1,0.5h0.6l-0.1,0.5h0.6l-0.1,0.5h0.6l-0.1,0.5h0.6
		l-0.1,0.5h0.6l-0.1,0.5h0.6l-0.1,0.5h0.6l-0.1,0.5h0.6l-0.1,0.5h0.6l-0.1,0.5h0.6l-0.1,0.5h0.6l-0.1,0.5h0.6l-0.1,0.5h0.6l-0.1,0.5
		h8.8l2.6-12.2c0.1,0.1,0.1,0.1,0.2,0.2c0,0,0,0,0.1,0c0.1,0.2,0.3,0.3,0.4,0.5c0,0,0,0,0.1,0c0.1,0.2,0.3,0.3,0.4,0.5
		c0,0,0,0,0.1,0c0.1,0.2,0.3,0.3,0.4,0.5c0,0,0,0,0.1,0c0.1,0.2,0.3,0.3,0.4,0.5c0,0,0,0,0.1,0c0.1,0.2,0.3,0.3,0.4,0.5
		c0,0,0,0,0.1,0c0.1,0.2,0.3,0.3,0.4,0.5c0,0,0,0,0.1,0c0.1,0.2,0.3,0.3,0.4,0.5c0,0,0,0,0.1,0c0.1,0.2,0.3,0.3,0.4,0.5
		c0,0,0,0,0.1,0c0.1,0.2,0.3,0.3,0.4,0.5c0,0,0,0,0.1,0c0.1,0.2,0.3,0.3,0.4,0.5c0,0,0,0,0.1,0c0.1,0.2,0.3,0.3,0.4,0.5
		c0,0,0,0,0.1,0c0.1,0.2,0.3,0.3,0.4,0.5c0,0,0,0,0.1,0c0.1,0.2,0.3,0.3,0.4,0.5c0,0,0,0,0.1,0c0.1,0.2,0.3,0.3,0.4,0.5
		c0,0,0,0,0.1,0c0.1,0.2,0.3,0.3,0.4,0.5c0,0,0,0,0.1,0c0.1,0.2,0.3,0.3,0.4,0.5c0,0,0,0,0.1,0c0.1,0.2,0.3,0.3,0.4,0.5
		c0,0,0,0,0.1,0c0.1,0.2,0.3,0.3,0.4,0.5c0,0,0,0,0.1,0c0.1,0.2,0.3,0.3,0.4,0.5c0,0,0,0,0.1,0c0.1,0.2,0.3,0.3,0.4,0.5
		c0,0,0,0,0.1,0c0.1,0.2,0.3,0.3,0.4,0.5c0,0,0,0,0.1,0c0.1,0.2,0.3,0.3,0.4,0.5c1.7,1.3,3.7,1.9,5.8,1.8c1.6,0,3.2-0.2,4.7-0.5
		c1.6-0.4,3.2-0.8,4.7-1.4l0.2-6.9c-0.2,0.1-0.3,0.1-0.5,0.2v-0.7c-0.2,0.1-0.3,0.1-0.5,0.2V114c-0.2,0.1-0.3,0.1-0.5,0.2v-0.7
		c-0.2,0.1-0.3,0.1-0.5,0.2V113c-0.2,0.1-0.3,0.1-0.5,0.2v-0.7c-0.2,0.1-0.3,0.1-0.5,0.2V112c-0.2,0.1-0.3,0.1-0.5,0.2v-0.7
		c-0.2,0.1-0.3,0.1-0.5,0.2V111c-0.2,0.1-0.3,0.1-0.5,0.2v-0.7c-0.2,0.1-0.3,0.1-0.5,0.2V110c-0.2,0.1-0.3,0.1-0.5,0.2v-0.7
		c-0.2,0.1-0.3,0.1-0.5,0.2V109c-0.2,0.1-0.3,0.1-0.5,0.2v-0.7c-0.2,0.1-0.3,0.1-0.5,0.2l0.1-0.6c0.2,0.2,0.3,0.3,0.5,0.5
		s0.3,0.3,0.5,0.5s0.3,0.3,0.5,0.5s0.3,0.3,0.5,0.5s0.3,0.3,0.5,0.5s0.3,0.3,0.5,0.5s0.3,0.3,0.5,0.5s0.3,0.3,0.5,0.5
		s0.3,0.3,0.5,0.5s0.3,0.3,0.5,0.5s0.3,0.3,0.5,0.5s0.3,0.3,0.5,0.5s0.3,0.3,0.5,0.5s0.3,0.3,0.5,0.5s0.3,0.3,0.5,0.5
		s0.3,0.3,0.5,0.5s0.3,0.3,0.5,0.5s0.3,0.3,0.5,0.5s0.3,0.3,0.5,0.5s0.3,0.3,0.5,0.5c1.8,1.9,4.1,3.3,6.6,4.2
		c3.1,1.1,6.3,1.6,9.5,1.6c3.4,0.1,6.8-0.6,9.8-1.7c2.6-1.1,4.9-2.8,6.6-5.1c1.5-2.1,2.3-4.7,2.3-7.3c0.1-1.8-0.4-3.5-1.4-5
		C473.4,104.2,472.9,103.7,472.4,103.3z M391.4,114.5c-0.1,0-0.1,0-0.2,0l0,0H391.4L391.4,114.5z M367.5,32.1h0.2l-0.1,0.4h-0.2
		L367.5,32.1z M390.9,114.1c-0.1,0-0.2,0-0.3-0.1v-0.1h0.3V114.1z M368,32.6h0.2l-0.1,0.4h-0.2L368,32.6z M368.5,33.1h0.2l-0.1,0.4
		h-0.2L368.5,33.1z M369,33.6h0.2l-0.1,0.4h-0.2L369,33.6z M369.5,34.1h0.2l-0.1,0.4h-0.2L369.5,34.1z M370,34.6h0.2l-0.1,0.4h-0.2
		L370,34.6z M370.5,35.1h0.2l-0.1,0.4h-0.2L370.5,35.1z M371,35.6h0.2l-0.1,0.4h-0.2L371,35.6z M371.5,36.1h0.2l-0.1,0.4h-0.2
		L371.5,36.1z M372,36.6h0.2l-0.1,0.4h-0.2L372,36.6z M372.5,37.1h0.2l-0.1,0.4h-0.2L372.5,37.1z M373,37.6h0.2l-0.1,0.4h-0.2
		L373,37.6z M373.5,38.1h0.2l-0.1,0.4h-0.2L373.5,38.1z M374,38.6h0.2l-0.1,0.4h-0.2L374,38.6z M374.5,39.1h0.2l-0.1,0.4h-0.2
		L374.5,39.1z M375,39.6h0.2l-0.1,0.4h-0.2L375,39.6z M367.1,32h-0.2l0.1-0.4h0.2L367.1,32z M391.6,115h0.3v0.1
		C391.8,115.1,391.7,115.1,391.6,115L391.6,115z"/>
	<path class="st1" d="M24.4,73.8c-3.2,0-6.4-0.5-9.5-1.6c-2.7-0.9-5.2-2.5-7.1-4.7l4.6-5.7c1.8,1.7,3.9,3.1,6.2,4.1
		c2.1,0.9,4.4,1.4,6.7,1.4c1.6,0,3.3-0.2,4.8-0.7c1.2-0.4,2.3-1.2,3.2-2.2c0.7-1,1.1-2.2,1.1-3.4c0.1-1.4-0.8-2.8-2.1-3.3
		c-2-0.9-4.2-1.7-6.3-2.3c-2.3-0.7-4.5-1.5-6.7-2.4c-1.5-0.6-2.8-1.6-3.9-2.8c-0.9-1.3-1.3-2.8-1.2-4.4c0-2.7,0.8-5.4,2.4-7.6
		c1.7-2.3,4-4.1,6.6-5.2c2.9-1.3,6.1-2,9.3-1.9c2.8-0.1,5.6,0.4,8.2,1.4c2.3,0.9,4.3,2.3,6,4.2l-4.7,5c-1.4-1.4-3-2.5-4.7-3.4
		c-1.7-0.7-3.6-1-5.4-1c-1.6,0-3.1,0.2-4.6,0.7c-1.3,0.4-2.4,1.1-3.3,2.1c-0.8,1-1.2,2.2-1.2,3.5c-0.1,1.3,0.5,2.5,1.6,3.1
		c1.8,0.9,3.7,1.6,5.7,2c2.5,0.7,5,1.5,7.3,2.6c1.7,0.7,3.2,1.8,4.4,3.3c1,1.5,1.5,3.2,1.4,5c0,2.6-0.8,5.1-2.3,7.3
		c-1.7,2.2-4,4-6.6,5.1C31.3,73.2,27.8,73.9,24.4,73.8z"/>
	<path class="st1" d="M60.5,14.6h8.8l-5.4,25.2c2-2.7,4.6-5,7.6-6.6c2.8-1.5,5.9-2.3,9-2.4c2-0.1,4,0.3,5.8,1.3
		c1.4,0.8,2.4,2.1,3,3.6c0.6,1.7,0.9,3.4,0.9,5.2c0,1.1-0.1,2.2-0.2,3.3s-0.3,2.3-0.5,3.5L84.1,73h-8.9l5-23.2
		c0.2-0.9,0.3-1.7,0.4-2.5c0.1-0.7,0.2-1.4,0.2-2.2c0.1-1.7-0.4-3.5-1.4-4.9c-1.1-1.1-2.5-1.7-4.1-1.6c-1.6,0.1-3.2,0.5-4.7,1.3
		c-1.8,0.9-3.4,2-4.8,3.4c-1.5,1.5-2.7,3.1-3.7,5L56.9,73h-8.8L60.5,14.6z"/>
	<path class="st1" d="M110.3,73.8c-2.8,0.1-5.6-0.7-8-2.3c-2.3-1.5-4-3.7-5.1-6.2c-1.2-2.7-1.8-5.7-1.8-8.6c0-3.3,0.6-6.6,1.9-9.7
		c1.2-3,2.9-5.8,5.1-8.2c2.1-2.3,4.6-4.3,7.3-5.8c2.7-1.4,5.7-2.1,8.8-2.1c2.8-0.1,5.5,0.8,7.7,2.5c2,1.5,3.5,3.6,4.3,6l1.8-7.8h8.8
		l-6.7,30.8c-0.1,0.2-0.1,0.4-0.1,0.6c0,0.2,0,0.4,0,0.6c0,1,0.6,1.5,1.8,1.6l-1.5,7.5l-2,0.3c-0.5,0.1-1.1,0.1-1.6,0.1
		c-1.3,0.1-2.7-0.3-3.8-1c-0.9-0.7-1.4-1.7-1.4-2.8c0-0.3,0-0.6,0-0.9s0.1-0.7,0.2-1.2s0.2-1,0.4-1.5c-2,2.5-4.5,4.6-7.4,6.1
		C116.2,73,113.3,73.7,110.3,73.8z M114.2,66.3c1.2,0,2.3-0.2,3.4-0.6c1.2-0.4,2.4-1,3.5-1.7c1.2-0.7,2.2-1.6,3.2-2.5
		c0.9-0.9,1.7-2.1,2.2-3.3l2.3-10.9c-0.2-1.6-0.8-3.2-1.6-4.5c-0.8-1.3-2-2.4-3.3-3.2s-2.8-1.2-4.3-1.2c-2,0-3.9,0.5-5.6,1.5
		c-1.8,1-3.4,2.3-4.7,3.9c-1.4,1.6-2.5,3.5-3.2,5.4c-0.8,1.9-1.2,4-1.2,6.1c0,1.9,0.4,3.8,1.2,5.6c0.7,1.6,1.9,2.9,3.3,3.9
		C110.6,65.8,112.4,66.3,114.2,66.3z"/>
	<path class="st1" d="M159.4,73.8c-2.8,0.1-5.6-0.7-8-2.3c-2.2-1.5-4-3.7-5.1-6.2c-1.2-2.7-1.8-5.7-1.8-8.6c0-3.3,0.6-6.6,1.8-9.7
		c1.2-3,2.9-5.8,5.1-8.2c2.1-2.4,4.6-4.3,7.4-5.8c2.7-1.4,5.7-2.1,8.7-2.1c2.8-0.1,5.5,0.8,7.7,2.5c2,1.5,3.5,3.6,4.2,6l5.3-24.7
		h8.9l-10.2,48c-0.1,0.3-0.1,0.5-0.1,0.7s0,0.3,0,0.5c0,1.1,0.6,1.6,1.8,1.7l-1.6,7.5l-2,0.3c-0.6,0.1-1.1,0.2-1.6,0.2
		c-1.4,0-2.8-0.4-3.9-1.2c-0.9-0.7-1.5-1.8-1.4-3c0-0.3,0-0.6,0.1-0.9s0.1-0.8,0.2-1.3c0.1-0.5,0.2-1.1,0.4-1.6
		c-2,2.5-4.5,4.6-7.4,6.1C165.3,73,162.4,73.7,159.4,73.8z M163.3,66.3c1.1,0,2.3-0.2,3.4-0.6c1.2-0.4,2.4-1,3.5-1.7
		c1.2-0.7,2.3-1.6,3.2-2.6c0.9-0.9,1.7-2,2.2-3.3l2.3-10.9c-0.2-1.6-0.8-3.1-1.7-4.5c-0.9-1.3-2-2.4-3.3-3.2s-2.7-1.2-4.2-1.2
		c-2,0-4,0.5-5.7,1.4c-1.8,1-3.4,2.3-4.7,3.9c-1.4,1.6-2.5,3.5-3.3,5.5c-0.8,1.9-1.2,4-1.2,6.1c0,1.9,0.4,3.8,1.2,5.5
		c0.7,1.6,1.8,3,3.2,4C159.7,65.8,161.5,66.3,163.3,66.3z"/>
	<path class="st1" d="M210.4,73.8c-3.2,0.1-6.3-0.7-9-2.3c-2.5-1.5-4.5-3.7-5.8-6.3c-1.3-2.8-2-5.9-2-9c0-3.3,0.7-6.6,2-9.6
		s3.1-5.8,5.4-8.2c4.8-5,11.5-7.7,18.4-7.6c2.6-0.1,5.2,0.4,7.6,1.3c2,0.7,3.7,2.1,5,3.8c1.2,1.8,1.8,4,1.8,6.2
		c0.2,4.1-2.1,7.9-5.7,9.8c-3.9,2.2-9.8,3.3-17.7,3.3c-1.5,0-3.2,0-5-0.1c-1.9-0.1-4-0.2-6.3-0.4l1.2-5.7c2.1,0.1,4,0.2,5.7,0.3
		s3.2,0.2,4.6,0.2c3,0.1,6-0.2,9-0.9c1.8-0.4,3.4-1.2,4.7-2.4c0.9-1,1.5-2.3,1.5-3.6c0-1.1-0.3-2.1-0.9-2.9
		c-0.7-0.8-1.5-1.4-2.5-1.7c-1.2-0.4-2.5-0.6-3.8-0.6c-2.3,0-4.5,0.5-6.5,1.5c-2,1.1-3.7,2.5-5,4.3c-1.4,1.9-2.6,3.9-3.3,6.2
		c-0.8,2.3-1.2,4.7-1.1,7.2c0,1.9,0.3,3.7,1,5.5c0.6,1.6,1.7,3,3.1,3.9c1.6,1,3.4,1.6,5.3,1.5c2.3,0,4.6-0.6,6.6-1.7
		c2.1-1.1,3.8-2.7,5-4.7l7,2.2c-1.4,2.1-3.2,4-5.2,5.5c-2.2,1.6-4.5,2.9-7.1,3.8C215.8,73.3,213.1,73.8,210.4,73.8z"/>
	<path class="st1" d="M252.6,24.1h-17.8l1.7-7.9h44.6l-1.7,7.9h-17.8L251.4,73h-9L252.6,24.1z"/>
	<path class="st1" d="M280.2,31.5h8.2l-2,9.2c1.8-2.7,4.1-5,6.8-6.8c2.2-1.6,4.9-2.5,7.6-2.6c0.5,0,1,0,1.3,0s0.5,0.1,0.8,0.1
		l-1.6,7.7c-3.1,0.1-6.2,0.8-9,2.3c-2.8,1.4-5.1,3.6-6.7,6.2L280.2,73h-8.8L280.2,31.5z"/>
	<path class="st1" d="M316.5,73.8c-2.8,0.1-5.6-0.7-8-2.3c-2.2-1.5-4-3.7-5.1-6.2c-1.2-2.7-1.8-5.7-1.8-8.6c0-3.3,0.6-6.6,1.8-9.7
		c1.2-3,2.9-5.8,5.1-8.2c2.1-2.3,4.6-4.3,7.4-5.8c2.7-1.4,5.7-2.1,8.8-2.1c2.8-0.1,5.5,0.8,7.7,2.5c2,1.5,3.5,3.6,4.2,6l1.8-7.8h8.9
		l-6.7,30.8c-0.1,0.2-0.1,0.4-0.1,0.6c0,0.2,0,0.4,0,0.6c0,1,0.6,1.5,1.8,1.6l-1.5,7.5l-2,0.3c-0.5,0.1-1.1,0.1-1.6,0.1
		c-1.4,0.1-2.7-0.3-3.8-1c-0.9-0.7-1.4-1.7-1.4-2.8c0-0.3,0-0.6,0-0.9s0.1-0.7,0.2-1.2s0.2-1,0.4-1.5c-2,2.5-4.5,4.6-7.3,6
		C322.4,73,319.5,73.7,316.5,73.8z M320.3,66.3c1.2,0,2.3-0.2,3.4-0.6c1.2-0.4,2.4-1,3.5-1.7c1.2-0.7,2.2-1.6,3.2-2.5
		s1.7-2.1,2.2-3.3l2.4-10.9c-0.2-1.6-0.8-3.2-1.6-4.5c-0.9-1.3-2-2.4-3.4-3.2c-1.3-0.8-2.8-1.2-4.3-1.2c-2,0-3.9,0.5-5.7,1.5
		c-1.8,1-3.4,2.3-4.7,3.9c-1.4,1.6-2.5,3.5-3.2,5.4c-0.8,1.9-1.2,4-1.2,6.1c0,1.9,0.4,3.8,1.2,5.6c0.7,1.6,1.9,2.9,3.3,3.9
		C316.8,65.8,318.5,66.3,320.3,66.3z"/>
	<path class="st1" d="M358.1,31.5h8.9L358.1,73h-8.8L358.1,31.5z M361.7,14.9h8.8l-2.1,9.7h-8.8L361.7,14.9z"/>
	<path class="st1" d="M377.7,73.8c-2.1,0.1-4.1-0.5-5.8-1.8c-1.4-1.3-2.1-3.1-2-5c0-0.5,0.1-0.9,0.2-1.4c0.1-0.4,0.2-0.9,0.2-1.4
		l10.5-49.7h8.8L379.8,61c0,0.2-0.1,0.5-0.2,0.7c-0.1,0.3-0.1,0.5-0.1,0.8c0,2.2,1.2,3.4,3.5,3.4c0.7,0,1.4-0.1,2.1-0.3
		c0.8-0.2,1.5-0.4,2.3-0.7l-0.2,6.9c-1.5,0.6-3.1,1-4.7,1.4S379.3,73.8,377.7,73.8z"/>
	<path class="st1" d="M406.5,73.8c-3.2,0-6.4-0.5-9.5-1.6c-2.7-0.9-5.2-2.5-7.1-4.7l4.6-5.7c1.8,1.7,3.9,3.1,6.2,4.1
		c2.1,0.9,4.4,1.4,6.7,1.4c1.6,0,3.3-0.2,4.8-0.7c1.2-0.4,2.3-1.2,3.2-2.2c0.8-1,1.1-2.2,1.1-3.4c0.1-1.4-0.8-2.8-2.1-3.3
		c-2-0.9-4.2-1.7-6.3-2.3c-2.3-0.7-4.5-1.5-6.7-2.4c-1.5-0.6-2.8-1.6-3.9-2.8c-0.9-1.3-1.3-2.8-1.2-4.4c0-2.7,0.8-5.4,2.4-7.6
		c1.7-2.3,4-4.1,6.6-5.2c2.9-1.3,6.1-2,9.3-1.9c2.8-0.1,5.6,0.4,8.2,1.4c2.3,0.9,4.3,2.3,6,4.2L424,42c-1.4-1.4-3-2.5-4.7-3.4
		c-1.7-0.7-3.6-1-5.4-1c-1.6,0-3.1,0.2-4.6,0.7c-1.2,0.4-2.4,1.1-3.3,2c-0.8,1-1.2,2.2-1.2,3.5c-0.1,1.3,0.5,2.5,1.6,3.1
		c1.8,0.9,3.7,1.6,5.7,2c2.5,0.7,5,1.5,7.3,2.6c1.7,0.7,3.2,1.8,4.4,3.3c1,1.5,1.5,3.2,1.4,5c0,2.6-0.8,5.2-2.4,7.3
		c-1.7,2.3-4,4-6.6,5.1C413.3,73.2,409.9,73.9,406.5,73.8z"/>
</g>
</svg>
